<?xml version="1.0" encoding="UTF-8" standalone="no"?>
<!-- Created with Inkscape (http://www.inkscape.org/) -->

<svg
   width="210mm"
   height="297mm"
   viewBox="0 0 210 297"
   version="1.1"
   id="svg5"
   inkscape:version="1.1.2 (b8e25be833, 2022-02-05)"
   sodipodi:docname="vector doc.svg"
   xmlns:inkscape="http://www.inkscape.org/namespaces/inkscape"
   xmlns:sodipodi="http://sodipodi.sourceforge.net/DTD/sodipodi-0.dtd"
   xmlns="http://www.w3.org/2000/svg"
   xmlns:svg="http://www.w3.org/2000/svg">
  <sodipodi:namedview
     id="namedview7"
     pagecolor="#505050"
     bordercolor="#eeeeee"
     borderopacity="1"
     inkscape:pageshadow="0"
     inkscape:pageopacity="0"
     inkscape:pagecheckerboard="0"
     inkscape:document-units="mm"
     showgrid="true"
     inkscape:zoom="0.74372695"
     inkscape:cx="436.31604"
     inkscape:cy="596.99329"
     inkscape:window-width="1920"
     inkscape:window-height="1027"
     inkscape:window-x="-8"
     inkscape:window-y="-8"
     inkscape:window-maximized="1"
     inkscape:current-layer="layer1"
     inkscape:object-nodes="false"
     inkscape:snap-others="true"
     inkscape:snap-nodes="true">
    <inkscape:grid
       type="xygrid"
       id="grid1301"
       enabled="false" />
  </sodipodi:namedview>
  <defs
     id="defs2">
    <filter
       inkscape:collect="always"
       style="color-interpolation-filters:sRGB"
       id="filter1532"
       x="-0.015365605"
       y="-0.021809444"
       width="1.0307312"
       height="1.0436189">
      <feGaussianBlur
         inkscape:collect="always"
         stdDeviation="1.3172866"
         id="feGaussianBlur1534" />
    </filter>
    <filter
       inkscape:collect="always"
       style="color-interpolation-filters:sRGB"
       id="filter1696"
       x="-0.018106345"
       y="-0.066250195"
       width="1.0340942"
       height="1.1301701">
      <feGaussianBlur
         inkscape:collect="always"
         stdDeviation="0.35600857"
         id="feGaussianBlur1698" />
    </filter>
    <filter
       inkscape:collect="always"
       style="color-interpolation-filters:sRGB"
       id="filter3130"
       x="-0.14291925"
       y="-0.25520701"
       width="1.2858396"
       height="1.533881">
      <feGaussianBlur
         inkscape:collect="always"
         stdDeviation="1.5691076"
         id="feGaussianBlur3132" />
    </filter>
    <filter
       inkscape:collect="always"
       style="color-interpolation-filters:sRGB"
       id="filter3138"
       x="-0.077711099"
       y="-0.21102579"
       width="1.1553979"
       height="1.395068">
      <feGaussianBlur
         inkscape:collect="always"
         stdDeviation="0.95292577"
         id="feGaussianBlur3140" />
    </filter>
  </defs>
  <g
     inkscape:label="Layer 1"
     inkscape:groupmode="layer"
     id="layer1">
    <circle
       style="fill:#ffffff;stroke-width:0.264583"
       id="path138"
       cx="112.64087"
       cy="160.37224"
       r="28.12351"
       inkscape:export-filename="C:\Users\weyla\OneDrive\Desktop\WDD 130\final project\logo.png"
       inkscape:export-xdpi="28.456614"
       inkscape:export-ydpi="28.456614" />
    <path
       style="fill:none;stroke:#424b54;stroke-width:0.665;stroke-linecap:butt;stroke-linejoin:miter;stroke-opacity:1;filter:url(#filter1696);stroke-miterlimit:4;stroke-dasharray:none"
       d="m 85.546873,167.92416 c 0.284615,-0.12513 0.57884,-0.23035 0.853845,-0.37539 1.093259,-0.57655 2.78738,-2.34741 3.834943,-3.23858 0.652666,-0.55523 1.417113,-0.9632 2.075725,-1.50888 0.465425,-0.38562 0.777758,-0.91084 1.251325,-1.28808 0.615027,-0.48991 1.43078,-0.87159 1.980036,-1.43528 0.687364,-0.70542 1.206905,-1.42924 2.053643,-2.00939 0.361249,-0.24751 0.816173,-0.27258 1.19244,-0.48578 0.319474,-0.18103 1.33909,-1.46429 1.75185,-1.36904 0.33908,0.0782 0.61777,1.24666 0.79496,1.50888 0.25498,0.37736 0.59454,0.6313 0.78024,1.06726 0.20067,0.47111 0.28067,0.96151 0.52261,1.42056 0.47441,0.90013 3.46755,3.78358 4.35019,4.22488 0.47533,0.23765 1.82354,1.01124 2.23767,0.50051 1.0625,-1.31037 2.10611,-2.85622 2.95901,-4.3132 0.39992,-0.68317 0.52283,-1.48142 0.90537,-2.17133 0.34389,-0.62021 0.90486,-1.12498 1.31757,-1.70025 0.39433,-0.54965 0.63953,-1.10133 1.11883,-1.60457 0.73621,-0.77299 1.59968,-5.22734 1.7813,-5.3363 0.0771,-0.0463 0.27479,0.0278 0.32387,0.0442 1.71144,0.57046 1.9665,2.84719 2.83388,4.21016 0.30196,0.47448 0.93302,0.69638 1.33229,1.07462 0.5256,0.49791 0.91033,1.17635 1.38382,1.72234 0.62603,0.72187 1.53715,1.07996 2.18614,1.75177 1.03544,1.07185 2.09367,2.03712 3.17247,3.06194 0.49706,0.47218 0.86163,1.07437 1.3691,1.53832 0.25714,0.23509 2.71711,1.78457 3.38594,1.7665 2.31228,-0.0625 4.49576,-0.82718 6.83075,-0.69924"
       id="path1253"
       inkscape:export-filename="C:\Users\weyla\OneDrive\Desktop\WDD 130\final project\logo.png"
       inkscape:export-xdpi="28.456614"
       inkscape:export-ydpi="28.456614" />
    <path
       style="mix-blend-mode:normal;fill:#729b79;fill-opacity:1;stroke-width:0.67229;filter:url(#filter1532)"
       d="m 415.19909,711.59826 c -40.08991,-4.57825 -73.52682,-29.98244 -88.01718,-66.87239 -3.65717,-9.31053 -3.654,-9.25911 -0.65354,-10.6017 1.4066,-0.62939 5.4315,-3.73929 8.94422,-6.91089 3.51271,-3.17159 8.05067,-6.92706 10.08434,-8.34548 2.03368,-1.41843 4.75645,-3.69714 6.05061,-5.0638 1.29416,-1.36666 3.7144,-3.41054 5.37832,-4.54197 1.66392,-1.13142 5.33517,-4.27911 8.15834,-6.99486 2.82318,-2.71575 5.59385,-4.93772 6.15706,-4.93772 0.5632,0 2.72199,-1.38317 4.79731,-3.07371 l 3.7733,-3.07371 1.05575,2.52677 c 0.58067,1.38973 1.78865,3.48765 2.68441,4.66205 0.89576,1.1744 2.121,3.61387 2.72276,5.42104 1.56585,4.70244 13.16085,16.24424 19.17958,19.09157 5.67039,2.68254 6.71045,2.5898 9.50243,-0.84737 4.09808,-5.04505 9.98016,-14.61002 11.66397,-18.96702 0.89957,-2.32772 2.61587,-5.40335 3.81399,-6.83472 6.74071,-8.05302 8.56753,-11.49308 11.24416,-21.17368 1.16307,-4.20646 2.21649,-7.75675 2.34093,-7.88953 0.12444,-0.13278 1.15229,0.41798 2.28411,1.2239 1.39679,0.9946 3.12635,3.70273 5.38408,8.43034 2.48801,5.2098 3.9071,7.35973 5.63116,8.53126 1.26769,0.86142 3.72498,3.30951 5.46062,5.4402 1.73565,2.13069 4.72179,5.04296 6.63587,6.47172 1.91409,1.42876 7.77425,6.86845 13.02259,12.08821 7.31835,7.2785 10.68725,10.11452 14.45423,12.16791 5.83015,3.17805 6.67896,3.23233 20.01311,1.27978 6.87966,-1.0074 9.79591,-1.20505 9.97231,-0.67588 0.1371,0.41133 0.97284,0.74788 1.85718,0.74788 1.86206,0 1.84557,0.22723 -0.7565,10.42049 -7.79562,30.53833 -31.56346,57.97392 -60.80264,70.18541 -16.41372,6.85505 -36.13876,9.93146 -52.03688,8.1159 z"
       id="path1489"
       transform="matrix(0.26458333,0,0,0.26458333,-0.03680365,0.12512703)"
       inkscape:export-filename="C:\Users\weyla\OneDrive\Desktop\WDD 130\final project\logo.png"
       inkscape:export-xdpi="28.456614"
       inkscape:export-ydpi="28.456614" />
    <g
       id="g3136"
       style="filter:url(#filter3138)"
       inkscape:export-filename="C:\Users\weyla\OneDrive\Desktop\WDD 130\final project\logo.png"
       inkscape:export-xdpi="28.456614"
       inkscape:export-ydpi="28.456614">
      <path
         style="fill:#424b54;fill-opacity:1;stroke:#424b54;stroke-width:0.665001;stroke-miterlimit:4;stroke-dasharray:none;stroke-opacity:1"
         id="path2966"
         d="m 100.09178,158.33021 c -0.120882,0.17759 -0.635359,0.62112 -0.535669,0.85289 0.02035,0.0473 0.07547,0.07 0.113202,0.10498 0.271455,0.0587 0.552587,-0.004 0.821847,-0.0535 0.0167,-0.003 0.0611,0.005 0.0501,-0.008 -0.0306,-0.0358 -0.0732,-0.0784 -0.12006,-0.0744 -0.073,0.006 -0.653351,0.5789 -0.723373,0.64944 -0.05364,0.10169 -0.407289,0.37727 -0.312063,0.54297 0.135083,0.23505 0.629906,0.01 0.789516,-0.0313 0.10088,-0.0262 0.5448,-0.14503 0.66045,-0.16227 0.0724,-0.0108 0.284,-0.008 0.21819,0.0241 -0.0225,0.0109 -0.0491,-0.01 -0.0736,-0.0146 -0.0275,0.0235 -0.0551,0.047 -0.0826,0.0706 -0.10297,0.12518 -0.63638,0.54651 -0.35446,0.72447 0.0632,0.0399 0.14761,0.0239 0.22141,0.0359 0.40759,-0.025 0.80557,-0.28733 1.21836,-0.20249 0.0572,0.18594 -0.49491,0.72774 -0.62216,0.87964 -0.37597,0.56887 0.21989,0.45764 0.56339,0.40183 0.14711,-0.023 0.29584,-0.0277 0.44387,-0.0414 0.0346,-0.003 0.12573,-0.0391 0.10364,-0.0122 -0.0119,0.0144 -0.0251,0.0276 -0.0377,0.0414 -0.11093,0.30798 -0.47882,0.50745 -0.53438,0.82616 0.0489,0.0343 0.0899,0.0846 0.1467,0.10307 0.20601,0.0671 0.71609,-0.0792 0.96956,-0.0765 0.23576,0.0218 0.13571,-0.0151 0.0553,0.10796 -0.0436,0.0668 -0.15435,0.24287 -0.19313,0.30431 -0.22914,0.42591 -0.47477,0.63444 0.22412,0.61747 0.10511,0.0206 0.60943,-0.0782 0.63177,0.12419 0.008,0.075 -0.0473,0.14332 -0.0749,0.21347 -0.21175,0.48673 -0.14614,0.65373 0.40027,0.68912 0.30268,-0.0182 0.69152,-0.0277 0.69725,0.35971 0.021,0.16738 -0.2967,0.39766 -0.28517,0.53997 0.004,0.0447 0.0426,0.079 0.064,0.11848 0.32297,0.0805 0.67793,-0.0517 1.00052,-0.11791 0.20583,-0.004 0.0908,-0.0756 0.0295,0.0413 -0.0158,0.0302 -0.0263,0.0628 -0.0395,0.0942 -0.0168,0.0312 -0.0336,0.0624 -0.0504,0.0935 -0.13956,0.39692 0.55627,0.14335 0.7094,0.10343 0.2535,-0.0614 0.0934,0.0511 0.11964,0.24019 0.19066,0.0418 0.11472,0.002 0.23858,0.097 0,0 0.78843,-0.46568 0.78843,-0.46568 v 0 c -0.0211,-0.12229 -0.0258,-0.0493 0.0948,-0.19794 0.0484,-0.21567 0.0743,-0.50814 -0.24604,-0.43459 -0.13144,0.0312 -0.45775,0.0732 -0.56077,0.14403 -0.0214,0.0147 -0.0131,0.0577 -0.0366,0.0687 -0.0187,0.009 0.0114,-0.0397 0.0171,-0.0596 0.0894,-0.16492 0.34262,-0.55995 -0.0746,-0.46866 -0.31022,0.0377 -0.6161,0.11449 -0.91683,0.19645 -0.0112,0.0103 -0.0228,0.0416 -0.0335,0.0308 -0.0136,-0.0138 0.25357,-0.47222 0.18347,-0.54905 -0.0888,-0.44919 -0.4039,-0.50836 -0.81908,-0.46931 -0.49347,-2.6e-4 -0.52506,-0.0496 -0.30668,-0.51042 0.17009,-0.55907 -0.30055,-0.46261 -0.69844,-0.48635 -0.19449,-0.005 -0.35147,0.015 -0.35245,0.005 -0.0143,-0.14932 0.17224,-0.29495 0.21644,-0.42031 0.12316,-0.17752 0.55558,-0.64769 0.0505,-0.61356 -0.27682,-0.001 -0.63458,-0.0899 -0.87837,0.0539 0.027,-0.19227 0.52156,-0.58131 0.55182,-0.82719 10e-4,-0.0484 0.016,-0.0983 0.004,-0.14518 -0.0546,-0.21086 -0.45893,-0.0635 -0.59646,-0.0726 -0.23231,0.0353 -0.13275,0.0185 -0.35849,0.0591 -0.0433,0.008 -0.0871,0.0134 -0.12989,0.0236 -0.0198,0.005 -0.0421,0.0342 -0.0575,0.0208 -0.0605,-0.0528 0.12165,-0.24415 0.0918,-0.2228 0.17647,-0.20418 0.76129,-0.76283 0.66338,-1.05004 -0.0138,-0.0406 -0.0579,-0.0633 -0.0868,-0.095 -0.41705,-0.1169 -0.83251,0.1107 -1.24062,0.18068 -0.0459,0.011 -0.092,0.0209 -0.13759,0.0331 -0.0176,0.005 -0.0576,0.0347 -0.0518,0.0175 0.0764,-0.22739 0.34838,-0.37024 0.47622,-0.56303 0.39703,-0.62554 -0.79204,-0.15068 -0.97953,-0.12657 -0.17103,0.0379 -0.34767,0.0568 -0.51263,0.11582 -0.0272,0.01 -0.0415,0.0525 -0.0703,0.0506 -0.13504,-0.009 0.27606,-0.44836 0.22759,-0.3987 0.0893,-0.0874 0.7689,-0.64687 0.7852,-0.69523 0.0831,-0.24658 -0.0367,-0.18023 -0.10999,-0.15476 -0.2748,0.0801 -0.55539,0.14186 -0.84152,0.16262 -0.3929,0.0401 0.21291,-0.59374 0.27072,-0.67845 0,0 -0.7763,0.33501 -0.7763,0.33501 z" />
      <path
         style="fill:#ffff00;fill-opacity:1;stroke:#424b54;stroke-width:0.665001;stroke-miterlimit:4;stroke-dasharray:none;stroke-opacity:1"
         id="path2968"
         d="m 119.22008,152.88157 c -0.35274,0.45551 -0.81279,0.82156 -1.08736,1.33225 0.005,0.0647 -0.0139,0.136 0.0149,0.19422 0.1303,0.26392 0.77766,0.28214 1.02726,0.355 0.091,0.0266 0.17703,0.0677 0.26554,0.1016 0.41719,0.34176 0.27131,0.78759 0.10754,1.22173 -0.18095,0.48545 0.34181,0.47478 0.6601,0.59633 0.0497,0.0493 0.11026,0.0746 0.0752,0.15819 -0.071,0.16918 -0.34154,0.45776 -0.45664,0.63571 -0.0249,0.0992 -0.0904,0.19624 0.0644,0.25129 0.24405,0.0868 1.12502,-0.0598 1.42015,-0.0837 0.0319,0.003 0.36764,-0.0115 0.40689,0.11039 0.0502,0.15594 -0.71571,0.81294 -0.82163,0.9056 -0.0864,0.0892 -0.67981,0.48678 -0.63453,0.64412 0.0865,0.30063 0.84194,0.0655 0.97656,0.0414 0.47104,-0.0536 0.91469,-0.33204 1.39527,-0.32711 0.0353,2.6e-4 0.10041,0.0184 0.092,0.0527 -0.01,0.0394 -0.0796,0.0204 -0.11481,0.0406 -0.0846,0.0486 -0.16143,0.10968 -0.24214,0.16452 -0.54102,0.36134 -1.08354,0.7203 -1.62224,1.0851 -0.17151,0.11615 -0.34788,0.22549 -0.51386,0.34942 -0.0819,0.0611 -0.20843,0.10438 -0.22814,0.20462 -0.0135,0.0689 0.10749,0.0904 0.16124,0.13564 1.15148,-0.39043 2.28422,-0.83364 3.45968,-1.15178 0.0513,-0.006 0.17046,0.0315 0.15386,-0.0173 -0.0564,-0.16604 -0.26687,0.017 -0.40185,0.10848 -0.43825,0.29703 -0.86394,0.61048 -1.28862,0.92641 -0.008,0.0236 -0.8238,0.56644 -0.43932,0.66339 0.26437,0.0667 1.22379,-0.3426 1.46415,-0.42906 0.29892,-0.0516 1.03809,-0.46066 1.35078,-0.35691 0.0364,0.0121 0.006,0.0818 -0.015,0.11417 -0.15067,0.23747 -0.37677,0.41771 -0.56997,0.62208 -0.14505,0.13547 -0.29011,0.27093 -0.43516,0.40639 -0.14377,0.12538 -0.29076,0.24717 -0.43133,0.37613 -0.0999,0.0917 -0.22138,0.16846 -0.28989,0.28551 -0.0341,0.0582 -0.0502,0.16264 0.004,0.20229 0.21446,0.15589 0.66867,-0.0249 0.84188,-0.068 0.18978,-0.0646 0.38023,-0.12723 0.56932,-0.19377 0.35414,-0.12463 0.69551,-0.26021 1.05335,-0.37308 0.11038,-0.0348 0.22125,-0.0696 0.3348,-0.092 0.0231,-0.005 0.26378,0.001 0.0601,-0.003 -0.3319,0.23568 -1.4486,0.97099 -1.56696,1.27755 -0.0248,0.0643 0.037,0.13269 0.0555,0.19903 0.1334,0.005 0.26774,0.0318 0.40021,0.0152 0.50952,-0.0637 1.07396,-0.30943 1.57933,-0.43112 0.29921,-0.072 0.28967,-0.13384 0.27153,0.008 -0.0545,0.0382 -0.11417,0.07 -0.16355,0.11465 -0.10966,0.0991 -0.20795,0.21017 -0.31192,0.31526 -0.15994,0.14373 -0.31798,0.28959 -0.47981,0.43118 -0.48983,0.42858 -0.99356,0.82792 -1.45657,1.28578 0.0173,0.084 -0.0211,0.20685 0.0519,0.25203 0.20733,0.12847 0.74605,-0.0478 0.90784,-0.0941 0.50129,-0.14351 0.98597,-0.34082 1.47356,-0.52381 0.0628,-0.0124 0.13378,-0.004 0.18847,-0.0372 0.0342,-0.0208 -0.0834,-0.0206 -0.12012,-0.004 -0.0674,0.0297 -0.11692,0.0894 -0.17513,0.13441 -0.30537,0.23616 -0.61366,0.46647 -0.91277,0.71059 -0.0687,0.0726 -0.15037,0.13489 -0.20619,0.21784 -0.0875,0.13008 -0.11087,0.27457 0.096,0.32895 0.39634,0.10417 1.11726,-0.21147 1.47412,-0.33242 0.5515,-0.1972 1.07087,-0.47405 1.6211,-0.6741 0.0892,-0.0324 0.42127,-0.15696 0.49493,-0.0928 0.0243,0.0212 -0.0405,0.0503 -0.0608,0.0754 -0.23822,0.37975 -0.58897,0.66572 -0.88425,0.99591 -0.0793,0.0887 -0.18448,0.16836 -0.2182,0.28246 -0.0168,0.0567 0.0333,0.13459 0.0895,0.15314 0.10658,0.0352 0.22437,-0.008 0.33655,-0.0123 0.5071,-0.15052 0.99929,-0.34759 1.49111,-0.54114 0.14605,-0.0575 0.62686,-0.30747 0.8354,-0.2883 -0.0526,-0.0114 -0.1061,-0.0489 -0.15789,-0.0342 -0.0838,0.0239 -0.14691,0.0936 -0.21957,0.14167 -0.11244,0.0743 -0.22391,0.15013 -0.33571,0.22543 -0.28617,0.19274 -0.58933,0.36001 -0.7996,0.63748 0.0568,0.035 0.1036,0.10517 0.1703,0.10507 0.0941,-1.5e-4 0.79652,-0.24386 0.84116,-0.25876 0.41292,-0.13779 0.82493,-0.277 1.23518,-0.42256 0.3223,-0.0176 -0.0903,0.11939 -0.18631,0.2603 -0.0195,0.0287 -0.0105,0.0686 -0.0157,0.10294 0.058,0.0175 0.11345,0.0548 0.17397,0.0524 0.0896,-0.004 0.1736,-0.0449 0.25981,-0.0695 0.30937,-0.0883 0.61596,-0.18676 0.91929,-0.29389 0.11552,-0.0518 0.0661,-0.008 0.11846,-0.1594 0,0 0.54195,-0.21955 0.54195,-0.21955 v 0 c 0.0983,-0.1781 0.15256,-0.14543 0.06,-0.18018 -0.20209,0.0605 -0.40302,0.12491 -0.60522,0.18493 -0.15135,0.0449 -0.3132,0.058 -0.45788,0.12119 -0.0292,0.0127 -0.0442,0.0458 -0.0663,0.0687 -0.0922,0.0425 0.14877,-0.20717 0.12903,-0.28856 -0.0309,-0.12722 -0.28336,-0.0246 -0.29974,-0.0214 -0.37882,0.0971 -0.74681,0.21593 -1.11991,0.33269 -0.13701,0.0429 -0.27438,0.0847 -0.41257,0.12355 -0.0895,0.0252 -0.18494,0.032 -0.27043,0.0686 -0.0314,0.0134 -0.0455,0.051 -0.0683,0.0764 0.11948,-0.29672 0.68317,-0.58043 0.93689,-0.73585 0.0992,-0.0607 0.21916,-0.0951 0.29913,-0.17948 0.0413,-0.0435 0.0251,-0.11731 0.0376,-0.17597 -0.74499,0.25539 -1.47251,0.56363 -2.23234,0.77277 -0.17149,0.0401 -0.25962,0.0419 -0.12914,-0.20151 0.20423,-0.38104 0.55903,-0.65686 0.79322,-1.0166 -0.0126,-0.0607 0.0127,-0.14612 -0.0378,-0.18221 -0.0808,-0.0578 -0.53106,0.0835 -0.53956,0.0862 -0.51802,0.16345 -1.00477,0.40947 -1.51384,0.59656 -0.41083,0.12632 -0.77401,0.2303 -1.20271,0.24799 -0.0334,10e-4 -0.0765,0.0272 -0.1001,0.004 -0.0719,-0.0718 0.17579,-0.29399 0.14398,-0.26864 0.38464,-0.33062 0.14249,-0.13396 0.60215,-0.47429 0.0451,-0.0334 0.51924,-0.36858 0.56302,-0.46683 0.0239,-0.0537 -0.006,-0.14805 -0.0619,-0.16517 -0.0819,-0.0249 -0.16459,0.0475 -0.24689,0.0712 -0.42908,0.12805 -0.85479,0.27495 -1.28664,0.39284 -0.014,0.004 -0.57593,0.1424 -0.68106,0.14433 -0.0416,7.9e-4 -0.0793,-0.0253 -0.11896,-0.038 0.0499,-0.0875 0.0837,-0.1863 0.14963,-0.26245 0.44241,-0.51131 1.04464,-0.90507 1.55455,-1.34307 0.14342,-0.1232 0.29956,-0.23512 0.42131,-0.37979 0.0731,-0.0869 0.10273,-0.20264 0.1541,-0.30397 -0.0497,-0.0237 -0.094,-0.0711 -0.14903,-0.0712 -0.11148,-1.5e-4 -0.21896,0.0427 -0.3269,0.0706 -0.52038,0.13436 -1.03206,0.30779 -1.57202,0.35061 -0.0943,-0.067 -0.10968,-0.0513 0.0441,-0.21788 0.34368,-0.37212 0.80661,-0.60572 1.19059,-0.92526 0.075,-0.0624 0.12884,-0.14663 0.19327,-0.21995 -0.0247,-0.0502 -0.0224,-0.12926 -0.0742,-0.15046 -0.0744,-0.0305 -0.54255,0.13212 -0.59128,0.14837 -0.5217,0.17392 -1.03144,0.38277 -1.56081,0.53373 -0.13142,0.0287 -0.26316,0.056 -0.39428,0.0861 -0.0632,0.0145 -0.12377,0.0467 -0.18862,0.0477 -0.12906,0.002 0.001,-0.16201 0.0758,-0.24923 0.1288,-0.15008 0.6538,-0.63895 0.76755,-0.74666 0.13499,-0.13361 0.65199,-0.59132 0.70512,-0.83212 0.10524,-0.47701 -1.52869,0.23881 -1.6081,0.24371 -0.8477,0.27036 -0.22567,0.0793 -0.95935,0.28891 -0.0765,0.0219 -0.15362,0.0419 -0.22861,0.0684 -0.0263,0.009 -0.0712,0.0665 -0.0744,0.0387 -0.0195,-0.16614 0.34096,-0.29142 0.32216,-0.38474 0.46521,-0.34938 0.43707,-0.33912 0.94658,-0.67371 0.15325,-0.10063 0.31004,-0.19575 0.46479,-0.29406 0.11109,-0.0706 0.25224,-0.10846 0.33273,-0.2126 0.0355,-0.046 0.0195,-0.15575 -0.0367,-0.17039 -0.0886,-0.0231 -0.17222,0.0624 -0.25833,0.0936 -1.08241,0.36386 -2.16846,0.71861 -3.26022,1.05319 -0.0332,0.0375 -0.0535,0.13198 -0.0997,0.11261 -0.0443,-0.0186 0.0416,-0.0886 0.0752,-0.12287 0.0936,-0.0953 0.19573,-0.18273 0.3032,-0.26209 0.26465,-0.19541 0.95575,-0.63338 1.22671,-0.80375 0.18858,-0.11857 0.37887,-0.23441 0.5683,-0.35162 0.14876,-0.11042 0.467,-0.29449 0.3461,-0.43486 -0.0439,-0.051 -0.1339,-0.0224 -0.20096,-0.0175 -0.45983,0.0338 -0.89555,0.21713 -1.34805,0.29047 -0.49014,0.0728 -0.25765,0.0554 -0.66533,0.064 -0.28214,0.006 -0.12034,-0.11443 0.0298,-0.25225 0.0909,-0.0835 0.18759,-0.16057 0.28138,-0.24086 0.34125,-0.30087 1.55654,-1.21217 0.30261,-1.17192 -0.35948,0.0341 -0.71854,0.0705 -1.08018,0.0679 -0.0378,-2.7e-4 -0.23923,-5.3e-4 -0.25269,-0.0316 -0.0127,-0.0291 0.008,-0.063 0.0125,-0.0945 0.15588,-0.24553 0.0367,-0.0711 0.24898,-0.3389 0.1534,-0.19356 0.35899,-0.42109 0.0827,-0.60295 -0.13099,-0.043 -0.67076,-0.1139 -0.69889,-0.27954 -0.009,-0.0542 0.0199,-0.10822 0.0299,-0.16233 0.1645,-0.48129 0.27523,-0.96934 -0.22489,-1.29003 -0.0952,-0.0331 -0.18871,-0.0715 -0.28561,-0.0992 -0.2377,-0.0679 -0.76229,-0.10179 -0.92122,-0.31942 -0.0277,-0.0379 -0.0309,-0.0887 -0.0463,-0.13297 0.0964,-0.55806 0.62871,-0.76752 0.89693,-1.23441 0,0 -0.45676,0.20267 -0.45676,0.20267 z" />
    </g>
    <g
       id="g3092"
       style="stroke:#fcba04;stroke-opacity:1;filter:url(#filter3130)"
       inkscape:export-filename="C:\Users\weyla\OneDrive\Desktop\WDD 130\final project\logo.png"
       inkscape:export-xdpi="28.456614"
       inkscape:export-ydpi="28.456614">
      <path
         style="fill:#ffff00;fill-opacity:1;stroke:#fcba04;stroke-width:0.665001;stroke-miterlimit:4;stroke-dasharray:none;stroke-opacity:1"
         id="path3003"
         d="m 92.426887,165.21992 c -1.13479,0.5163 -2.1258,1.30844 -3.15109,2.00958 -0.533895,0.40576 -1.13456,0.72293 -1.667809,1.1293 -0.06094,0.0464 -0.169362,0.0845 -0.164118,0.16092 0.0043,0.0621 0.117311,0.0628 0.178834,0.0535 0.137036,-0.0207 0.261046,-0.0932 0.391568,-0.13984 0.514363,-0.2196 1.027297,-0.45207 1.562118,-0.61935 0.212336,-0.0664 0.502251,-0.16603 0.499592,-0.0354 -0.269238,0.29936 -0.661175,0.57514 -0.803323,0.96077 0.06307,0.024 0.121722,0.072 0.189193,0.072 0.142642,2e-5 0.680855,-0.16905 0.779378,-0.19905 0.416975,-0.12697 0.831935,-0.26137 1.247505,-0.39287 0.171471,-0.0664 0.410379,-0.16509 0.596643,-0.21852 0.114147,-0.0327 0.184479,-0.0445 0.186307,-0.007 7.94e-4,0.0186 -0.02773,0.0257 -0.03735,0.0417 -0.01958,0.0325 -0.03298,0.0684 -0.04948,0.10255 -0.222424,0.43703 -0.219104,0.5848 0.345533,0.38121 0.698622,-0.32477 1.402855,-0.63738 2.101429,-0.96224 0.02821,-0.005 0.09149,0.0142 0.08463,-0.0136 -0.03398,-0.13753 -0.5944,0.39252 -0.639501,0.43027 -0.0097,0.0364 -0.06208,0.091 -0.02913,0.10931 0.164166,0.0913 0.496322,-0.0562 0.616324,-0.0998 0.441031,-0.1605 0.870958,-0.35652 1.305652,-0.53329 0.125532,-0.0489 0.495533,-0.19351 0.640075,-0.24804 0.06338,-0.0239 0.12501,-0.0539 0.190857,-0.0698 0.01072,-0.003 0.03917,0.0141 0.02849,0.0168 -0.183624,0.0473 -5.29e-4,-0.0982 -0.188153,0.10345 -0.02077,0.0447 -0.498602,0.42456 -0.216723,0.44607 0.140205,0.0107 0.643673,-0.1718 0.740452,-0.20367 0.410911,-0.14033 0.81602,-0.29661 1.223097,-0.44742 0.140973,-0.0522 0.400513,-0.19123 0.561869,-0.15742 -0.07604,0.0863 -0.271317,0.31322 -0.213627,0.44234 0.01601,0.0359 0.06029,0.0504 0.09043,0.0755 0.415104,-0.011 0.811326,-0.13622 1.230311,-0.0776 0.0288,0.0168 0.0662,0.0239 0.0863,0.0505 0.0984,0.13016 -0.512136,0.68884 -0.591945,0.76721 -0.121682,0.1506 -0.842807,0.68006 -0.16818,0.62378 0.105973,-0.009 0.209762,-0.0351 0.314642,-0.0527 0.354623,-0.0636 0.705533,-0.15349 1.063683,-0.1972 0.21564,-0.0263 0.35519,-0.0266 0.34949,0.0195 -0.005,0.0376 -0.0721,0.0229 -0.10822,0.0344 -1.010879,0.62269 -2.047702,1.20169 -3.073729,1.79884 -0.200962,0.18728 -0.498822,0.2536 -0.702998,0.43996 -0.02643,0.0241 -0.06648,0.0882 -0.03348,0.10196 0.148232,0.062 0.655568,-0.14043 0.818464,-0.18468 0.469101,-0.0884 0.802151,-0.16314 1.21888,-0.56189 0.06955,-0.0666 -0.181912,-0.0876 -0.277794,-0.079 -0.160541,0.0144 -0.308263,0.0944 -0.461237,0.14519 -0.22836,0.0758 -0.455113,0.15638 -0.68267,0.23457 -0.944941,0.38815 -1.873348,0.81417 -2.793548,1.25729 -0.400875,0.19303 -0.781635,0.3967 -1.202484,0.53831 0.678474,-0.0754 -1.423498,0.90923 -0.419618,0.48591 0.100544,-0.0424 0.22039,-0.0491 0.30566,-0.11719 0.268928,-0.21473 0.525986,-0.44391 0.788982,-0.66587 -1.097391,0.51019 -2.267664,1.01429 -3.166594,1.8411 -0.01622,0.0551 -0.07396,0.11375 -0.04866,0.16532 0.03019,0.0616 0.110673,0.1014 0.179232,0.10091 0.162988,-0.001 0.871169,-0.26847 0.955373,-0.29787 0.730086,-0.25493 0.501486,-0.17619 1.229045,-0.41424 0.224417,-0.0628 0.594119,-0.18864 0.852366,-0.19553 0.03958,-0.001 0.122198,0.001 0.11204,0.0395 -0.01146,0.0432 -0.09216,0.008 -0.130598,0.0305 -0.09889,0.0587 -0.180528,0.14263 -0.273994,0.20963 -0.151744,0.10876 -0.307613,0.21165 -0.461421,0.31748 -0.536045,0.35332 -1.102407,0.66127 -1.61999,1.04268 -0.10926,0.0805 -0.224412,0.15681 -0.315328,0.25758 -0.04485,0.0497 -0.132903,0.1393 -0.08235,0.18318 0.09068,0.0787 0.237394,0.0363 0.356092,0.0545 1.16668,-0.30721 2.335485,-0.98626 3.551459,-1.06894 0.128453,-0.009 0.256755,0.0196 0.385133,0.0294 0.05842,0.0368 0.135467,0.0539 0.175271,0.11029 0.09845,0.13948 -0.334561,0.79471 -0.410046,0.94239 0.0027,0.0564 -0.03194,0.12951 0.0082,0.1693 0.243597,0.24161 1.033966,-0.0706 1.267614,-0.14533 0.170048,-0.0544 1.193631,-0.41692 1.353698,-0.47339 0.127966,-0.0437 0.9183,-0.31867 1.102402,-0.3635 0.06715,-0.0163 0.137764,-0.019 0.206783,-0.0154 0.01193,5.3e-4 0.03477,0.0269 0.02283,0.0277 -0.642553,0.0413 0.465335,-0.4037 0.608985,-0.48856 -0.632464,0.32533 -0.444625,0.23353 -1.087425,0.54477 -0.13326,0.0645 -0.266078,0.13001 -0.400558,0.19196 -0.0391,0.018 -0.08601,0.0213 -0.119978,0.0478 -0.275638,0.21457 -0.569048,0.41354 -0.80432,0.67173 -0.09706,0.10651 0.253344,-0.1374 0.380018,-0.2061 0.927441,-0.52709 1.845933,-1.06807 2.742463,-1.64622 0.2031,-0.13097 1.06213,-0.67555 1.28936,-0.86922 0.0904,-0.0771 0.15111,-0.18347 0.22667,-0.2752 -0.17886,-0.0192 -0.35824,-0.0814 -0.53656,-0.0577 -0.22853,0.0304 -1.78245,0.53979 -1.89943,0.5772 -0.886209,0.28338 -1.769443,0.56131 -2.667976,0.80267 -0.123995,-2.7e-4 -0.25404,0.0374 -0.371983,-8e-4 -0.245169,-0.0795 0.22946,-0.28344 0.362892,-0.36737 0.222228,-0.13978 0.437739,-0.29033 0.663236,-0.42476 0.403325,-0.24045 0.839817,-0.42032 1.259795,-0.63033 0.387083,-0.17618 2.415196,-0.91749 2.387376,-1.46232 -0.018,-0.35219 -0.63509,0.30678 -0.95305,0.45929 -0.40796,0.19569 -0.81649,0.3902 -1.224734,0.5853 -0.310464,0.14673 -1.769983,0.82899 -2.167128,1.04162 -0.492347,0.2636 -0.983308,0.53094 -1.459452,0.82279 -0.07853,0.0481 -0.274071,0.14138 -0.197776,0.19299 0.317196,0.21457 1.277064,-0.23101 1.404715,-0.27425 1.274321,-0.42385 2.549972,-0.84584 3.837955,-1.22683 0.46545,-0.13768 1.41753,-0.42662 1.96459,-0.49206 0.10927,-0.0131 0.21929,0.0188 0.32893,0.0282 -1.6458,1.09802 -3.378792,2.05948 -5.088326,3.0542 -0.149741,0.10145 -0.390075,0.13343 -0.449223,0.30435 -0.03544,0.10243 0.198229,0.13921 0.303967,0.11543 0.308605,-0.0694 0.581472,-0.24932 0.869783,-0.37944 1.283729,-0.57939 2.559619,-1.16585 3.856489,-1.71607 0.85218,-0.30775 1.6596,-0.72445 2.50294,-1.05325 0.22042,-0.0859 0.44526,-0.16339 0.67552,-0.21774 0.0637,-0.015 0.17117,-0.0485 0.19585,0.0121 0.0232,0.057 -0.0959,0.077 -0.14387,0.11554 0,0 0.13704,-0.0561 0.13704,-0.0561 v 0 c 0.0702,-0.0707 0.28271,-0.14326 0.21071,-0.2122 -0.084,-0.0804 -0.22531,0.0578 -0.33651,0.0917 -0.91471,0.27944 -1.84191,0.52035 -2.71997,0.90815 -0.44123,0.18532 -0.88246,0.37064 -1.32369,0.55596 -0.4173,0.17849 -0.83376,0.35895 -1.2519,0.53547 -0.34194,0.14435 -0.68308,0.2908 -1.028308,0.42711 -0.208733,0.0824 -0.433301,0.12677 -0.63314,0.22887 -0.08464,0.0432 -0.118618,0.15771 -0.204248,0.19895 -0.06759,0.0326 0.09753,-0.11402 0.146301,-0.17104 1.062315,-0.68694 2.152015,-1.2964 3.251845,-1.92758 0.16192,-0.0929 1.78543,-0.97071 2.07488,-1.29636 0.0557,-0.0626 -0.047,-0.16082 -0.0706,-0.24123 -2.12494,0.44057 -4.15671,1.25051 -6.264096,1.76333 -1.659972,0.41273 -0.149611,-0.0627 -0.955627,0.3661 -0.01511,0.008 -0.0074,-0.0512 -0.02365,-0.0456 -0.11861,0.0406 -0.447302,0.22673 -0.336103,0.16882 1.244269,-0.64796 0.830583,-0.43647 2.189811,-1.06411 0.355573,-0.15385 0.70876,-0.31335 1.066723,-0.46156 0.217042,-0.0899 0.456822,-0.13113 0.657942,-0.25251 0.45455,-0.27432 0.87321,-0.60477 1.29557,-0.92645 0.1131,-0.0861 -0.24156,0.15021 -0.36618,0.21862 -0.54015,0.29652 -1.10075,0.55488 -1.635661,0.86128 -1.132678,0.57002 -1.308994,0.64746 -2.59657,1.36456 -0.275514,0.15344 -1.238393,0.61603 -1.409886,1.0579 -0.09197,0.23697 1.105046,0.17033 0.761379,0.0428 1.256281,-0.40209 2.502199,-0.86755 3.781178,-1.19347 0.22783,-0.0581 0.46326,-0.0833 0.6908,-0.14254 0.11644,-0.0303 0.22565,-0.0836 0.33848,-0.12537 -0.1174,0.32236 -0.0285,0.16676 -0.48865,0.50399 -0.63637,0.46638 -1.238434,0.83383 -1.85563,1.14986 -0.602898,0.30054 -0.347011,0.15137 -1.248346,0.87757 -0.06244,0.0503 0.13486,-0.0874 0.20652,-0.12339 0.411192,-0.20653 0.852144,-0.34862 1.26633,-0.54867 0.496287,-0.28511 1.021616,-0.52478 1.488856,-0.85535 0.23646,-0.1673 0.12457,-0.32135 -0.0481,-0.30169 -0.51639,0.0588 -0.985518,0.38516 -1.487367,0.49312 -0.352258,0.12121 -0.918244,0.32078 -1.2823,0.42808 -0.739349,0.21792 -0.248555,0.0637 -0.855372,0.18938 -0.05098,0.0105 -0.09746,0.0495 -0.14937,0.0456 -0.02273,-0.002 -0.02244,-0.0396 -0.03367,-0.0595 0.118287,-0.24934 0.625237,-0.85721 0.291891,-1.12219 -0.08004,-0.0636 -0.195535,-0.0599 -0.293301,-0.0898 -0.165833,0.009 -0.332947,0.006 -0.497499,0.0283 -1.182495,0.16255 -2.266844,0.70799 -3.422425,0.97804 -0.07733,0.0458 -0.358299,0.24102 -0.281345,0.10164 0.09788,-0.17729 0.51757,-0.42853 0.613074,-0.49048 0.402484,-0.26107 0.822902,-0.49379 1.225227,-0.75511 0.0568,-0.0372 1.187635,-0.65244 0.920565,-0.88212 -0.109604,-0.0943 -1.080836,0.25891 -1.193374,0.27514 -0.55608,0.18153 -1.111422,0.36511 -1.671979,0.53248 -0.098,0.0293 -0.198194,0.0515 -0.294841,0.0849 -0.03079,0.0107 -0.05377,0.0529 -0.0858,0.0468 -0.02138,-0.004 -0.0061,-0.0431 -0.0091,-0.0646 0.05152,-0.0556 0.09567,-0.11911 0.154561,-0.16686 0.10976,-0.089 0.292434,-0.11153 0.348642,-0.24118 0.04899,-0.11302 -0.434391,0.23188 -0.322387,0.18062 0.37061,-0.16962 0.714793,-0.40301 1.106416,-0.52846 0.31946,-0.23094 0.638924,-0.46188 0.958387,-0.69283 -0.05246,0.0346 -0.101693,0.0747 -0.157372,0.10386 -0.145515,0.0762 -0.320683,0.0913 -0.45843,0.18078 -0.365257,0.23728 -0.713671,0.49965 -1.065339,0.75664 -0.01757,0.0128 0.04077,-0.0152 0.06115,-0.0228 1.329693,-0.69339 2.671157,-1.37538 4.086133,-1.88072 0.216101,-0.0701 0.431969,-0.14086 0.648306,-0.21021 0.149746,-0.048 0.312372,-0.0656 0.449929,-0.14181 0.0761,-0.0422 0.09497,-0.15208 0.167449,-0.20018 0.252037,-0.16726 0.533459,-0.28564 0.794605,-0.43829 0.199165,-0.11641 -0.946179,0.48914 -0.626219,0.29466 -0.01029,0.004 -1.196588,0.48259 -0.687493,0.13574 0.133803,-0.0912 0.276074,-0.16923 0.41411,-0.25385 1.16269,-0.66258 2.346458,-1.29513 3.486488,-1.99349 -0.003,-0.041 0.0256,-0.10003 -0.009,-0.12285 -0.0481,-0.0322 -0.11595,-0.002 -0.17379,7.9e-4 -0.44023,0.025 -0.8668,0.14634 -1.30304,0.2024 -0.22453,0.0264 -0.483345,0.053 -0.487592,0.0275 -0.03164,-0.19032 0.404502,-0.34905 0.456622,-0.49111 0.10679,-0.10375 0.36864,-0.35532 0.46933,-0.46452 0.15933,-0.17282 0.35588,-0.42284 0.0221,-0.51342 -0.39862,-0.0435 -0.789464,0.0147 -1.182741,0.0765 -0.239932,-0.0134 0.292151,-0.38064 0.112761,-0.5552 -0.236694,0.0267 -0.442408,0.12347 -0.665348,0.20596 -0.401011,0.14839 -0.802362,0.29609 -1.20572,0.438 -0.121197,0.0359 -0.24199,0.0731 -0.363593,0.10758 -0.07832,0.0222 -0.158969,0.0363 -0.236103,0.0624 -0.01942,0.007 -0.05747,0.0539 -0.05098,0.0344 0.05473,-0.16419 0.292746,-0.22206 0.374505,-0.36866 0.03784,-0.0425 0.222803,-0.18643 0.114556,-0.28943 -0.03281,-0.0312 -0.97006,0.3879 -1.053674,0.41775 -0.538101,0.22274 -1.075965,0.43463 -1.621644,0.63574 -0.05476,0.0202 -0.101859,0.0609 -0.158782,0.0738 -0.01201,0.003 -0.0058,-0.0239 -0.0087,-0.0359 0.04322,-0.0323 1.157375,-0.77695 0.508191,-0.61422 -0.673624,0.28848 -1.329939,0.61526 -2.007394,0.89488 -0.393541,0.14783 -0.522999,0.25996 -0.242808,-0.22044 0.225285,-0.57286 -0.515853,-0.12337 -0.756886,-0.10812 -0.410509,0.1343 -0.819737,0.27554 -1.236559,0.38945 -1.253268,0.34249 0.292912,-0.0861 -0.640464,0.14065 -0.03485,0.008 -0.06636,0.0272 -0.09955,0.0408 -0.02445,-0.005 -0.08013,0.008 -0.07331,-0.0162 0.06816,-0.24072 0.749324,-0.61648 0.744723,-0.94915 -0.03764,-0.0226 -0.06905,-0.0665 -0.112927,-0.0677 -0.132223,-0.004 -0.626938,0.17985 -0.680784,0.1987 -0.508058,0.17792 -1.011983,0.36813 -1.508657,0.57581 -0.126735,0.0516 -0.256622,0.0961 -0.380206,0.15481 -0.04371,0.0208 -0.07251,0.0706 -0.119372,0.0827 -0.02439,0.006 -0.08189,-0.014 -0.06722,-0.0345 0.06368,-0.0888 0.160468,-0.14871 0.246724,-0.21575 0.284938,-0.22147 0.851967,-0.60678 1.123175,-0.79459 0.925531,-0.63048 1.828448,-1.32375 2.843617,-1.8036 0,0 0.212196,-0.16858 0.212196,-0.16858 z" />
      <path
         style="fill:#ffff00;fill-opacity:1;stroke:#fcba04;stroke-width:0.665001;stroke-miterlimit:4;stroke-dasharray:none;stroke-opacity:1"
         id="path3005"
         d="m 98.04248,176.71841 c 2.15321,-0.70257 4.22256,-1.63555 6.32832,-2.46567 1.30577,-0.51211 2.61871,-1.00331 3.9562,-1.4263 0.22957,-0.0726 0.45828,-0.14873 0.69115,-0.20993 0.51869,-0.13632 -0.15306,0.35076 0.69957,-0.56826 -2.59927,1.23207 -5.23411,2.38658 -7.84098,3.60218 0,0 -0.11836,0.094 -0.11836,0.094 v 0 c 2.32823,-1.02596 4.63373,-2.11559 7.03514,-2.96387 0.45373,-0.30822 0.92632,-0.59036 1.36119,-0.92466 0.12706,-0.0977 -0.28524,0.14673 -0.43225,0.21056 -0.29137,0.12651 -0.58603,0.24552 -0.88227,0.36017 -1.29921,0.5028 -2.63232,0.90377 -3.9323,1.40458 -2.27006,0.87483 -4.52975,1.77933 -6.742723,2.79154 0,0 -0.122687,0.0957 -0.122687,0.0957 z" />
      <path
         style="fill:#ffff00;fill-opacity:1;stroke:#fcba04;stroke-width:0.665001;stroke-miterlimit:4;stroke-dasharray:none;stroke-opacity:1"
         id="path3007"
         d="m 114.9294,160.93418 c -0.27778,0.29792 -0.61644,0.52908 -0.89328,0.82776 0.005,0.0396 -0.0121,0.0907 0.0164,0.11876 0.17319,0.17022 0.70971,0.0516 0.93893,0.11169 0.0333,0.009 0.0521,0.0452 0.0781,0.0678 0.0142,0.0211 -0.25871,0.17167 -0.19246,0.13119 0.0855,-0.0523 0.35541,-0.17757 0.2579,-0.15449 -0.20129,0.0477 -1.13212,0.64589 -1.23115,0.70487 -0.0244,0.0446 -0.0891,0.0855 -0.0731,0.13372 0.0352,0.10615 0.81335,0.1657 0.96624,0.20855 0.0199,0.02 0.0685,0.0331 0.0598,0.06 -0.0121,0.0378 -0.069,0.04 -0.0999,0.0648 -0.0614,0.0492 -0.11708,0.10511 -0.17643,0.15675 -0.24219,0.2107 -0.48919,0.41227 -0.72218,0.63325 -0.47462,0.46089 0.17981,0.29748 0.39611,0.26484 0.45214,-0.0682 0.15929,-0.0364 0.56481,-0.0721 0.0194,0.003 0.19686,-0.006 0.193,0.0845 -0.004,0.0967 -0.41982,0.43299 -0.49172,0.49901 -0.15977,0.18175 -0.65617,0.45617 -0.2035,0.60384 0.30338,0.0438 0.61261,0.0116 0.918,0.002 0.0414,-0.004 0.1553,0.006 0.16302,0.004 -0.037,-0.0458 -0.066,0.0168 -0.0897,0.0506 0.0536,0.0528 -0.21163,0.187 -0.17825,0.16023 0.1141,-0.0915 0.24237,-0.1638 0.36355,-0.2457 -0.73153,0.29948 -1.45863,0.60874 -2.19488,0.89643 -0.0398,0.0144 -0.0796,0.0287 -0.11943,0.0431 0.008,-0.006 0.0328,-0.0244 0.0248,-0.018 -0.26628,0.2157 -1.42148,1.05032 -0.88415,0.7407 1.64517,-0.94799 1.63926,-0.87518 -0.0466,-0.19971 -0.33815,0.23107 -0.31429,0.21132 0.73941,-0.41866 0.0943,-0.0564 -0.19255,0.10603 -0.28949,0.15778 -0.20832,0.11121 -0.41955,0.21687 -0.63018,0.3236 -0.37752,0.23176 -0.78614,0.41918 -1.13256,0.69527 -0.0286,0.0228 0.20892,0.18183 0.2729,0.13496 1.12708,-0.82583 1.33505,-0.87624 0.80314,-0.69661 -0.695,0.18185 -1.39935,0.32429 -2.10116,0.47663 0.0794,0.29098 -0.32598,-0.0565 -0.36467,0.0605 -0.0162,0.0491 0.0983,0.10925 0.0594,0.14327 -0.20033,0.1751 -0.47447,0.24618 -0.68742,0.4057 -0.10301,0.0772 0.23409,-0.10729 0.35343,-0.15551 0.13033,-0.0527 0.26349,-0.098 0.39524,-0.14702 0.19311,-0.004 0.36676,-0.10066 0.55445,-0.12814 0.0164,-0.002 0.0589,0.0275 0.0424,0.0259 -0.0606,-0.006 -0.2217,0.004 -0.17854,-0.0389 0.15749,-0.15674 0.45973,-0.15477 0.56804,-0.34877 0.0873,-0.15636 -0.32852,0.14266 -0.49278,0.214 -0.92383,0.37958 -1.89052,0.63119 -2.85195,0.89286 -0.5387,0.0435 -1.97392,0.87204 -0.85734,0.75064 0.11738,-0.022 0.24332,-0.0109 0.35961,-0.0409 0.0459,-0.0118 -0.14171,-0.0686 -0.10387,-0.0971 0.2951,-0.22253 0.63755,-0.37407 0.95633,-0.5611 -0.38563,0.20378 -1.70497,0.63242 -1.40295,0.91125 0.0424,0.0391 0.10705,0.043 0.16057,0.0645 0.51264,-0.001 1.02093,-0.0832 1.53062,-0.12954 -0.3996,-0.23461 -0.0665,0.005 0.7039,-0.58718 0.0842,-0.0648 -0.19601,0.0819 -0.29436,0.12206 -0.31371,0.12799 -0.62817,0.25364 -0.94064,0.38467 -0.4941,0.20184 -0.72563,0.31018 -1.15208,0.83674 -0.0594,0.0734 0.18519,-0.0374 0.27807,-0.0547 0.37309,-0.0693 0.35659,-0.0634 0.73395,-0.12003 0.11112,-0.0121 0.39059,-0.0534 0.52533,-0.0354 0.0139,0.002 0.0403,0.0335 0.0264,0.0326 -0.0575,-0.004 -0.21193,-0.005 -0.16768,-0.0424 0.22422,-0.18722 0.50763,-0.28967 0.75376,-0.44699 0.0995,-0.0636 -0.20896,0.11036 -0.31343,0.16554 -0.60744,0.32199 -1.19756,0.67686 -1.79057,1.02384 -0.0185,0.0109 -0.32649,0.1962 -0.32978,0.20406 -0.0196,0.0467 0.0264,0.0978 0.0396,0.14673 0.264,-0.0299 0.11862,0.006 0.42515,-0.14495 0,0 0.72514,-0.56014 0.72514,-0.56014 v 0 c -0.0541,-0.0512 -0.0248,-0.0477 -0.0886,0.003 -10e-4,0.0423 -0.0397,0.10603 -0.003,0.12681 0.0362,0.0205 0.0681,-0.0479 0.10314,-0.0702 0.0598,-0.0382 0.24326,-0.14567 0.18124,-0.11131 -0.24173,0.13391 -0.47939,0.27508 -0.72053,0.41007 -0.20009,0.112 0.81952,-0.4763 0.59887,-0.33851 0.50732,-0.25455 1.0833,-0.53753 1.51981,-0.84159 0.0564,-0.0393 0.0771,-0.1339 0.0547,-0.19893 -0.0128,-0.0372 -0.64581,0.0574 -0.72268,0.0686 -0.10228,0.0106 -0.82262,0.0523 -0.89145,0.0923 -2.04877,1.19276 -1.06537,0.72271 -0.60542,0.50402 0.85298,-0.38566 1.50493,-0.53043 2.32254,-1.12035 0.0377,-0.0272 -0.0588,-0.0719 -0.0882,-0.10783 -0.491,0.0835 -0.98914,0.15591 -1.48827,0.14246 -0.0251,0.007 -0.0502,0.0138 -0.0752,0.0206 0.001,0.0108 0.0132,0.0268 0.004,0.0324 -1.59942,0.97046 -0.9851,0.50328 -0.54708,0.36945 0.37134,-0.21477 0.7664,-0.39294 1.114,-0.6443 0.0397,-0.0287 -0.002,-0.10075 -0.0222,-0.14518 -0.0437,-0.0945 -0.40544,0.0916 -0.47508,0.0727 -0.0209,0.002 -0.25851,0.0286 -0.26086,0.031 -0.0218,0.0224 0.0316,0.0763 0.006,0.0936 -1.46032,0.97586 -1.09119,0.52734 -0.56523,0.39321 0.98569,-0.2982 1.96427,-0.6204 2.94003,-0.94938 0.65548,-0.23818 0.87223,-0.29183 1.60731,-0.80382 0.0599,-0.0417 0.0991,-0.15188 0.0569,-0.21143 -0.0346,-0.0489 -0.11647,0.0285 -0.17336,0.0472 -0.31078,0.10211 -0.46462,0.17278 -0.78236,0.30273 -0.62724,0.19267 -0.97585,0.25751 -1.60897,0.70382 -0.0513,0.0362 -0.0473,0.14519 -0.002,0.18833 0.10499,0.0993 0.33615,-0.31208 0.42157,-0.10125 0.68474,-0.1462 1.36772,-0.30055 2.0545,-0.43725 0.56098,-0.0716 0.15704,0.002 1.18339,-0.79828 0.0372,-0.029 -0.12235,-0.005 -0.13557,0.0407 -0.008,0.0279 0.0257,0.0522 0.0386,0.0783 -0.3461,0.19798 -0.69219,0.39595 -1.03829,0.59392 0.79225,-0.46083 1.65258,-0.80441 2.40012,-1.34459 -0.39843,0.15132 -0.87723,0.73765 -1.19529,0.45396 -0.29723,-0.26512 0.69004,-0.39797 1.03513,-0.59681 0.0316,-0.0182 -0.0656,0.0328 -0.0947,0.0549 -0.37473,0.28448 -0.74625,0.57321 -1.11598,0.86418 -0.068,0.0535 0.64266,-0.39574 0.23185,-0.11698 0.82798,-0.41042 1.65661,-0.82137 2.51954,-1.15506 0.30251,-0.15901 0.96776,-0.35144 1.20148,-0.73904 0.0279,-0.0581 0.0413,-0.11065 -0.004,-0.16529 -0.0776,-0.0523 -0.20417,0.0651 -0.29429,0.0447 -0.30037,0.0396 -0.60919,0.0755 -0.91017,0.0261 -0.33344,-0.10627 0.0219,-0.28381 0.15358,-0.42818 0.18993,-0.15719 0.98025,-0.71049 0.24151,-0.713 -0.26426,0.0157 -0.52773,0.038 -0.79113,0.0648 -0.11687,0.0119 -0.22322,0.0344 -0.23025,0.009 -0.0102,-0.0366 0.0267,-0.0712 0.04,-0.10674 0.27866,-0.24335 0.20501,-0.18318 0.51027,-0.43123 0.01,-0.008 0.4985,-0.39711 0.52726,-0.43331 0.0297,-0.0374 0.0506,-0.0957 0.0319,-0.13955 -0.0159,-0.0373 -0.0745,-0.0319 -0.11183,-0.0479 -0.23876,-0.05 -0.68317,-0.0674 -0.88266,-0.15349 -0.0164,-0.007 -0.0235,-0.0268 -0.0352,-0.0402 -0.0618,0.0326 -0.24715,0.13014 -0.18532,0.0977 0.36703,-0.19263 1.31738,-0.60194 1.45048,-0.84539 0.0179,-0.0327 -0.0165,-0.0727 -0.0247,-0.1091 -0.34472,-0.0447 -0.80219,0.0645 -1.0959,-0.14411 0.23367,-0.31917 0.59072,-0.52422 0.85962,-0.81156 0,0 -0.41263,0.17322 -0.41263,0.17322 z" />
    </g>
    <g
       id="g1128"
       transform="translate(-1.27737,-0.18433)"
       inkscape:export-filename="C:\Users\weyla\OneDrive\Desktop\WDD 130\final project\logo.png"
       inkscape:export-xdpi="28.456614"
       inkscape:export-ydpi="28.456614">
      <path
         style="fill:#424b54;fill-opacity:1;stroke-width:0.419395"
         id="path209"
         d="m 114.58435,141.58248 c -2.41994,0.34958 -4.69479,1.2331 -6.88701,2.33084 -3.47675,1.94612 -6.84252,4.10006 -9.822866,6.81179 -2.150231,2.00742 -3.130433,4.00714 -3.863237,6.87875 -0.446237,2.07917 -0.484657,4.13767 0.363137,6.09444 1.004535,1.71133 2.891356,1.93339 4.645446,2.06888 2.42968,0.1064 4.6952,-0.77254 6.89045,-1.76073 2.45038,-1.37623 5.0926,-2.61455 6.92894,-4.879 0.74261,-0.91574 1.20542,-1.75565 1.81984,-2.76694 1.4606,-2.52441 2.37023,-5.26029 2.39054,-8.2175 -0.18795,-1.72758 -0.55532,-3.62572 -2.15369,-4.5132 -0.29398,-0.16322 -0.6211,-0.24977 -0.93164,-0.37466 -3.57629,-0.77201 -5.77067,1.15361 -8.69433,3.10825 -1.98058,2.99506 0.6197,3.60849 2.99337,3.98489 0.53479,-0.0223 1.06957,-0.0444 1.60436,-0.0666 0,0 2.10387,-1.60817 2.10387,-1.60817 v 0 c -0.46146,-0.013 -0.92292,-0.0266 -1.38437,-0.04 -1.99168,-0.35379 -4.55742,-0.88606 -2.57324,-3.42758 -0.5751,0.29071 -1.13674,0.61285 -1.7253,0.87212 -0.33659,0.14831 0.6329,-0.38534 0.96757,-0.53832 1.34149,-0.61322 2.80531,-0.82802 4.24396,-0.53867 2.37373,0.8516 2.64938,2.01728 2.96252,4.5228 -0.0357,2.88998 -0.9481,5.56615 -2.38323,8.02622 -0.84683,1.35207 -1.67076,2.65322 -2.84578,3.72353 -0.34488,0.31415 -1.42175,0.55105 -1.08618,0.87615 0.34938,0.33851 1.64419,-0.99846 1.25355,-0.714 -0.39608,0.28842 -0.84663,0.48396 -1.26996,0.72596 -2.14433,0.98583 -4.364,1.88063 -6.74479,1.82519 -1.640937,-0.1051 -3.484717,-0.22184 -4.473435,-1.79717 -0.852562,-1.86462 -0.79165,-3.86733 -0.357207,-5.85909 0.728169,-2.76142 1.799108,-4.79526 3.887242,-6.69875 1.10391,-0.98429 2.22313,-1.90647 3.42401,-2.75931 0.43727,-0.31054 0.95124,-0.51876 1.32607,-0.90911 0.2599,-0.27064 -1.27383,0.7544 -0.97068,0.53902 0.42873,-0.3046 0.89931,-0.53851 1.34897,-0.80778 2.17056,-1.12086 4.42214,-2.0231 6.82837,-2.39784 0,0 2.18473,-1.71442 2.18473,-1.71442 z" />
      <path
         style="fill:#424b54;fill-opacity:1;stroke-width:0.454042"
         id="path211"
         d="m 106.87591,173.7464 c 3.00048,-0.0721 5.78493,-1.34407 8.46481,-2.58228 4.56808,-2.32712 9.01845,-4.89163 13.40097,-7.55361 0.79126,-0.47249 4.33678,-2.62961 1.32181,-2.85116 -1.60463,0.29465 -3.05374,1.09609 -4.44281,1.92251 -3.89926,2.31982 -2.70863,1.53196 -5.07446,3.17914 -2.73713,1.88621 -5.24794,4.06519 -7.54368,6.46963 -1.10625,1.3394 -2.46095,2.96415 -2.01168,4.81251 0.86336,1.31995 2.5067,1.16859 3.88797,1.05602 2.35134,-0.35821 4.60403,-1.18148 6.75795,-2.17382 0.24466,-0.11273 0.48931,-0.22533 0.73398,-0.33799 0,0 2.42854,-1.93928 2.42854,-1.93928 v 0 c -0.22974,0.10396 -0.45947,0.208 -0.68922,0.31202 -2.12677,0.82121 -4.2349,1.76224 -6.50554,2.10612 -1.18789,0.13511 -2.80367,0.42751 -3.65723,-0.6322 -0.43533,-1.67534 0.95879,-3.19579 1.91974,-4.40419 2.25278,-2.36998 4.72136,-4.51132 7.42333,-6.35312 3.31617,-2.26657 0.23642,-0.0905 0.005,-0.20243 -0.42255,-0.20518 0.80475,-0.48618 1.21712,-0.71133 0.70912,-0.38715 1.44264,-0.7406 2.2021,-1.01761 0.27854,-0.10155 0.56723,-0.17249 0.85084,-0.25874 0.26922,-0.0275 0.65805,-0.23045 0.81174,-0.007 0.27696,0.40369 -2.18086,1.98215 -2.41299,2.10905 -0.48101,0.29309 -0.97327,0.56827 -1.44305,0.87927 -0.24812,0.1642 1.03434,-0.58804 0.77722,-0.43847 -2.52658,1.46979 -5.07925,2.89773 -7.68693,4.21729 -2.60684,1.2254 -5.33099,2.54005 -8.26406,2.59463 0,0 -2.47236,1.80445 -2.47236,1.80445 z" />
    </g>
    <g
       id="g2854"
       transform="translate(-12.898438,-14.221353)"
       inkscape:export-filename="C:\Users\weyla\OneDrive\Desktop\WDD 130\final project\GearLogo.png"
       inkscape:export-xdpi="28.901087"
       inkscape:export-ydpi="28.901087">
      <circle
         style="fill:#ffffff;stroke-width:0.264583;paint-order:markers fill stroke"
         id="circle842"
         cx="46.132874"
         cy="58.560196"
         r="28.12351"
         inkscape:export-filename="C:\Users\weyla\OneDrive\Desktop\WDD 130\final project\logo.png"
         inkscape:export-xdpi="28.456614"
         inkscape:export-ydpi="28.456614" />
      <rect
         style="fill:#ffffff;stroke:#000004;stroke-width:1.45625;stroke-linejoin:round;stroke-miterlimit:4;stroke-dasharray:none;stroke-dashoffset:0"
         id="rect1524"
         width="19.843752"
         height="26.458334"
         x="36.049473"
         y="44.317707"
         ry="3.3072903" />
      <rect
         style="fill:#ffffff;stroke:#000004;stroke-width:0.756;stroke-linejoin:round;stroke-miterlimit:4;stroke-dasharray:none;stroke-dashoffset:0"
         id="rect1570"
         width="13.229167"
         height="8.2682295"
         x="39.35677"
         y="59.20052"
         ry="1.6536443" />
      <path
         style="fill:none;stroke:#000000;stroke-width:0.330729px;stroke-linecap:butt;stroke-linejoin:miter;stroke-opacity:1"
         d="m 37.70312,44.317706 c 8.26823,14.882814 16.536459,0 16.536459,0"
         id="path2416"
         sodipodi:nodetypes="cc" />
      <rect
         style="fill:#ffffff;fill-opacity:1;stroke:#000004;stroke-width:0.456251;stroke-linejoin:round;stroke-miterlimit:4;stroke-dasharray:none;stroke-dashoffset:0;paint-order:normal"
         id="rect2497"
         width="3.3072917"
         height="4.960938"
         x="44.317707"
         y="49.278645"
         ry="0" />
    </g>
    <g
       id="g6262"
       inkscape:export-filename="C:\Users\weyla\OneDrive\Desktop\WDD 130\final project\TipsLogo.png"
       inkscape:export-xdpi="28.901087"
       inkscape:export-ydpi="28.901087">
      <circle
         style="fill:#ffffff;stroke-width:0.264583;paint-order:markers fill stroke"
         id="circle842-5"
         cx="40.39156"
         cy="107.81913"
         r="28.12351"
         inkscape:export-filename="C:\Users\weyla\OneDrive\Desktop\WDD 130\final project\logo.png"
         inkscape:export-xdpi="28.456614"
         inkscape:export-ydpi="28.456614" />
      <g
         id="g5267"
         transform="matrix(1.1943452,0,0,1.1943452,-10.177928,-8.7840185)">
        <path
           style="fill:none;stroke:#000000;stroke-width:0.173173px;stroke-linecap:butt;stroke-linejoin:miter;stroke-opacity:1"
           d="m 28.365559,100.92586 c -1.728848,0.01 -1.677409,-0.2233 -3.673406,0.54563 -0.384728,0.14822 -1.399463,0.8775 -1.566878,1.3483 -0.0834,0.23454 0.01155,0.29753 0.104193,0.40884 0.392756,0.47191 1.184121,0.48854 1.916465,0.5762 0.155664,0.0186 0.34108,0.0159 0.478772,0.0573 0.48141,0.14473 1.377152,0.32274 2.085654,0.15056 0.523391,-0.12721 1.179398,-0.56893 1.739685,-0.88176 0.08018,-0.0448 0.159237,-0.0635 0.238834,-0.12018 0.149341,-0.10616 0.279041,-0.27114 0.40857,-0.39699 0.103533,-0.10059 0.245056,-0.2016 0.340581,-0.30606 0.266785,-0.29173 0.282541,-0.45969 0.338971,-0.70258 0.0069,-0.0299 0.03787,-0.0715 0.03378,-0.095 -0.05617,-0.32481 -0.461625,-0.35507 -0.75375,-0.43703 -0.162644,-0.0457 -0.277898,-0.15767 -0.445166,-0.20192 -0.372753,-0.0986 -0.760218,-0.0629 -1.246258,0.0546 z"
           id="path4931" />
        <path
           style="fill:none;stroke:#000000;stroke-width:0.223638px;stroke-linecap:butt;stroke-linejoin:miter;stroke-opacity:1"
           d="m 30.427083,97.110279 c -2.905884,0.673052 -3.11315,0.490141 -5.511938,1.797542 -0.462364,0.252005 -1.254865,1.153509 -0.943332,1.547549 0.155176,0.19629 0.394938,0.20379 0.691777,0.24599 1.258467,0.17894 2.615232,-0.11439 3.962001,-0.33527 0.28625,-0.0469 0.595802,-0.12029 0.880443,-0.1444 0.995235,-0.0842 2.731823,-0.304835 3.710445,-0.698392 0.722932,-0.290735 1.272778,-0.852763 1.823778,-1.287583 0.07888,-0.06224 0.188667,-0.105823 0.251556,-0.176043 0.118104,-0.131873 0.128852,-0.297302 0.188666,-0.435311 0.04781,-0.110313 0.159247,-0.235535 0.188666,-0.345461 0.08217,-0.307005 -0.103182,-0.430632 -0.314444,-0.622384 -0.02601,-0.0236 -0.02627,-0.06464 -0.06289,-0.07955 -0.504701,-0.205689 -1.227265,-0.07062 -1.823779,-0.0154 -0.332139,0.03076 -0.668049,-0.0033 -1.006221,0.03023 -0.753583,0.07465 -1.362516,0.248966 -2.03473,0.518483 z"
           id="path4931-48" />
        <path
           style="fill:none;stroke:#000000;stroke-width:0.223638px;stroke-linecap:butt;stroke-linejoin:miter;stroke-opacity:1"
           d="m 33.704055,103.93411 c -2.905884,-0.28011 -3.113151,-0.531 -5.511938,-0.0104 -0.462364,0.10034 -1.254865,0.74189 -0.943332,1.23812 0.155176,0.24719 0.394938,0.33333 0.691777,0.4729 1.258467,0.59173 2.615232,0.74343 3.962001,0.96431 0.28625,0.0469 0.595802,0.0751 0.880443,0.1444 0.995235,0.24222 2.731823,0.59123 3.710445,0.51867 0.722932,-0.0536 1.272778,-0.43528 1.823778,-0.68937 0.07888,-0.0364 0.188667,-0.0439 0.251556,-0.0935 0.118104,-0.0931 0.128852,-0.25504 0.188666,-0.37343 0.04781,-0.0946 0.159247,-0.18329 0.188666,-0.28357 0.08217,-0.28006 -0.103182,-0.46448 -0.314444,-0.72553 -0.02601,-0.0322 -0.02627,-0.0733 -0.06289,-0.10017 -0.504701,-0.37124 -1.227265,-0.47318 -1.823779,-0.61362 -0.332139,-0.0782 -0.668049,-0.22239 -1.006221,-0.29983 -0.753583,-0.17253 -1.362516,-0.19795 -2.03473,-0.14893 z"
           id="path4931-4" />
        <path
           style="fill:none;stroke:#000000;stroke-width:0.223638px;stroke-linecap:butt;stroke-linejoin:miter;stroke-opacity:1"
           d="m 44.979167,104.77536 c -2.905884,0.19647 -3.113151,-0.0204 -5.511938,0.89356 -0.462364,0.17617 -1.254865,0.94769 -0.943332,1.39283 0.155176,0.22174 0.394938,0.26856 0.691777,0.35945 1.258467,0.38533 2.615232,0.31452 3.962001,0.31452 0.28625,0 0.595802,-0.0226 0.880443,0 0.995235,0.079 2.731823,0.14319 3.710445,-0.0899 0.722932,-0.17216 1.272778,-0.64402 1.823778,-0.98847 0.07888,-0.0493 0.188667,-0.0749 0.251556,-0.13479 0.118104,-0.1125 0.128852,-0.27617 0.188666,-0.40437 0.04781,-0.10247 0.159247,-0.20942 0.188666,-0.31452 0.08217,-0.29353 -0.103182,-0.44755 -0.314444,-0.67395 -0.02601,-0.0279 -0.02627,-0.069 -0.06289,-0.0899 -0.504701,-0.28847 -1.227265,-0.2719 -1.823779,-0.31452 -0.332139,-0.0237 -0.668049,-0.11282 -1.006221,-0.13479 -0.753583,-0.0489 -1.362516,0.0255 -2.03473,0.18478 z"
           id="path4931-6" />
        <path
           style="fill:none;stroke:#000000;stroke-width:0.192793px;stroke-linecap:butt;stroke-linejoin:miter;stroke-opacity:1"
           d="m 54.704033,103.11928 c -2.159578,0.56474 -2.313613,0.3741 -4.09633,1.5921 -0.343617,0.23476 -0.932583,1.10672 -0.70106,1.51238 0.115323,0.20207 0.293508,0.21851 0.514111,0.27178 0.93526,0.22585 1.943573,-0.0169 2.944457,-0.18759 0.212733,-0.0363 0.442784,-0.0981 0.654322,-0.11158 0.739633,-0.0472 2.03022,-0.20302 2.757507,-0.5601 0.537264,-0.26378 0.945896,-0.80532 1.355384,-1.2196 0.05862,-0.0593 0.140213,-0.0988 0.18695,-0.16666 0.08777,-0.12747 0.09576,-0.29251 0.140212,-0.42829 0.03553,-0.10853 0.118348,-0.2296 0.140212,-0.33843 0.06107,-0.30394 -0.07668,-0.43447 -0.233687,-0.6341 -0.01933,-0.0246 -0.01952,-0.0656 -0.04674,-0.0819 -0.375081,-0.22451 -0.912072,-0.11636 -1.355385,-0.0834 -0.246838,0.0184 -0.496477,-0.0281 -0.747798,-0.007 -0.560043,0.0466 -1.012587,0.19818 -1.512159,0.44264 z"
           id="path4931-0" />
        <path
           style="fill:none;stroke:#000000;stroke-width:0.171616px;stroke-linecap:butt;stroke-linejoin:miter;stroke-opacity:1"
           d="m 59.179721,99.600315 c -1.711224,0.196471 -1.83328,-0.02043 -3.245883,0.893555 -0.272278,0.17618 -0.738968,0.9477 -0.555511,1.39284 0.09138,0.22174 0.232572,0.26856 0.407375,0.35945 0.741089,0.38533 1.540064,0.31451 2.333152,0.31451 0.168568,0 0.350857,-0.0226 0.518477,0 0.586077,0.079 1.608722,0.1432 2.185016,-0.0899 0.425721,-0.17216 0.749516,-0.64402 1.07399,-0.98847 0.04645,-0.0493 0.111103,-0.0749 0.148137,-0.13479 0.06955,-0.1125 0.07588,-0.27617 0.111102,-0.40437 0.02815,-0.10247 0.09378,-0.20942 0.111102,-0.31452 0.04839,-0.29353 -0.06076,-0.44755 -0.18517,-0.673954 -0.01532,-0.02786 -0.01547,-0.06894 -0.03704,-0.08986 -0.29721,-0.288463 -0.722715,-0.271895 -1.073991,-0.314511 -0.195591,-0.02372 -0.393403,-0.112825 -0.592546,-0.134794 -0.443772,-0.04894 -0.802362,0.02551 -1.198216,0.184776 z"
           id="path4931-2" />
        <path
           style="fill:none;stroke:#000000;stroke-width:0.223638px;stroke-linecap:butt;stroke-linejoin:miter;stroke-opacity:1"
           d="m 56.25653,96.056004 c -2.905884,-0.475075 -3.113151,-0.739879 -5.511938,-0.380243 -0.462364,0.06932 -1.254865,0.657702 -0.943332,1.174836 0.155176,0.257597 0.394938,0.35983 0.691777,0.519314 1.258467,0.676163 2.615232,0.918895 3.962001,1.230135 0.28625,0.06616 0.595802,0.11511 0.880443,0.203467 0.995235,0.308996 2.731823,0.774511 3.710445,0.76761 0.722932,-0.005 1.272778,-0.349884 1.823778,-0.567002 0.07888,-0.03108 0.188667,-0.03129 0.251556,-0.07665 0.118104,-0.08521 0.128852,-0.246397 0.188666,-0.360772 0.04781,-0.09143 0.159247,-0.172617 0.188666,-0.27092 0.08217,-0.274539 -0.103182,-0.4714 -0.314444,-0.746622 -0.02601,-0.03387 -0.02627,-0.07501 -0.06289,-0.104396 -0.504701,-0.405099 -1.227265,-0.555514 -1.823779,-0.735984 -0.332139,-0.100477 -0.668049,-0.267211 -1.006221,-0.36733 -0.753583,-0.223092 -1.362516,-0.28937 -2.03473,-0.285448 z"
           id="path4931-1" />
      </g>
      <path
         style="fill:none;stroke:#000000;stroke-width:1.20509;stroke-linecap:round;stroke-linejoin:bevel;stroke-miterlimit:4;stroke-dasharray:none;stroke-opacity:1;paint-order:stroke fill markers"
         d="m 25.764969,113.75742 c 0.764352,-0.0889 1.570288,-0.004 2.293061,-0.26681 2.963704,-1.07226 3.426438,-2.13749 5.395457,-3.86833 0.561471,-0.49356 1.222775,-0.94244 1.753518,-1.4673 0.114646,-0.11334 0.155147,-0.28682 0.269774,-0.40018 0.229263,-0.22672 0.580059,-0.30685 0.809317,-0.53357 0.615826,-0.609 0.93446,-1.48241 1.483752,-2.13426 0.203519,-0.24153 0.532247,-0.38574 0.674431,-0.66694 0.0829,-0.16399 0.08993,-0.35572 0.134885,-0.53358 0.08993,-0.17785 0.170007,-0.36092 0.269774,-0.53356 0.225351,-0.39 0.547022,-0.58789 0.809313,-0.93374 0.216192,-0.28507 0.330133,-0.64381 0.539547,-0.93374 0.296291,-0.41021 0.780491,-0.54002 1.079089,-0.93374 0.47615,-0.627823 1.009179,-1.241733 1.483752,-1.867483 0.01799,-0.0236 0.521635,-0.376555 0.539544,-0.400169 0.08531,-0.112484 0.0496,-0.287687 0.134884,-0.400173 0.0603,-0.07953 0.186103,-0.07825 0.269771,-0.133392 0.267218,0.01328 0.06379,-0.196472 0.134899,-0.26678 0.337121,-0.333386 0.59023,-0.450301 0.809316,-0.666954 0.03178,-0.03142 -0.03178,-0.101949 0,-0.13339 0.456992,-0.451925 1.152532,-0.739587 1.618641,-1.200519 0.163292,-0.161476 0.268648,-0.399069 0.404656,-0.53357 0.09984,-0.09874 0.404659,-0.0773 0.404659,-0.266782"
         id="path6058" />
      <path
         style="fill:none;stroke:#000000;stroke-width:1.20509;stroke-linecap:round;stroke-linejoin:bevel;stroke-miterlimit:4;stroke-dasharray:none;stroke-opacity:1;paint-order:stroke fill markers"
         d="m 41.411772,99.751327 c 0.269776,-0.53357 0.599813,-1.04129 0.809327,-1.6007 0.306796,-0.819192 0.5495,-1.669636 0.674428,-2.534429 0.0345,-0.238701 -0.173991,-1.428641 0,-1.600697 0.03178,-0.03144 0.103072,0.03142 0.134885,0 0.05255,-0.05197 0,-0.452166 0,-0.533567"
         id="path6060" />
      <path
         style="fill:none;stroke:#000000;stroke-width:1.20509;stroke-linecap:round;stroke-linejoin:bevel;stroke-miterlimit:4;stroke-dasharray:none;stroke-opacity:1;paint-order:stroke fill markers"
         d="m 37.500072,106.28749 c 0.99248,-0.26616 1.94445,-0.76136 2.832614,-1.20052 0.08043,-0.0398 0.206183,0.0628 0.269771,0 0.03177,-0.0314 -0.03178,-0.102 0,-0.13338 0.09537,-0.0944 0.79438,0 0.944203,0"
         id="path6062" />
      <path
         style="fill:none;stroke:#000000;stroke-width:1.20509;stroke-linecap:round;stroke-linejoin:bevel;stroke-miterlimit:4;stroke-dasharray:none;stroke-opacity:1;paint-order:stroke fill markers"
         d="m 46.672342,113.09047 c -1.124056,-1.20053 -2.500359,-2.21104 -3.372156,-3.60158 -0.563164,-0.89826 -0.525936,-2.04894 -0.809317,-3.068 -0.211275,-0.7597 -0.422485,-1.52019 -0.67444,-2.26765 -0.216557,-0.64249 -0.456967,-1.28675 -0.809312,-1.86749 -0.213288,-0.3515 -0.589616,-0.58611 -0.809318,-0.93373 -0.899417,-1.423113 -1.88913,-2.735603 -2.832615,-4.135132 -0.355309,-0.52706 -0.936098,-1.051105 -1.213975,-1.60069 -0.04023,-0.07953 0.0636,-0.203899 0,-0.266783 -0.03178,-0.03142 -0.08992,0 -0.134884,0"
         id="path6064" />
      <path
         style="fill:none;stroke:#000000;stroke-width:1.20509;stroke-linecap:round;stroke-linejoin:bevel;stroke-miterlimit:4;stroke-dasharray:none;stroke-opacity:1;paint-order:stroke fill markers"
         d="m 42.355981,103.75307 c 0,-1.23936 -0.0741,-1.04955 0.539546,-2.66784 0.101078,-0.26657 0.410792,-0.4123 0.539545,-0.66694 0.02015,-0.0398 -0.03178,-0.102 0,-0.1334 0.03178,-0.0314 0.10306,0.0314 0.134884,0 0.0086,-0.008 0.261128,-0.791803 0.269772,-0.800343 0.07499,-0.0742 0.311194,-0.21532 0.404659,-0.40018 0.150599,-0.29783 0.250022,-0.933739 -0.134884,-0.933739"
         id="path6066" />
      <path
         style="fill:none;stroke:#000000;stroke-width:1.20509;stroke-linecap:round;stroke-linejoin:bevel;stroke-miterlimit:4;stroke-dasharray:none;stroke-opacity:1;paint-order:stroke fill markers"
         d="m 43.704842,99.617937 c -0.26977,-0.22232 -0.517129,-0.47433 -0.809315,-0.66696 -0.525341,-0.34635 -1.099166,-0.591263 -1.618638,-0.93374 -0.353427,-0.23301 -0.413692,-0.67589 -0.674432,-0.933738"
         id="path6068" />
      <path
         style="fill:none;stroke:#000000;stroke-width:1.20509;stroke-linecap:round;stroke-linejoin:bevel;stroke-miterlimit:4;stroke-dasharray:none;stroke-opacity:1;paint-order:stroke fill markers"
         d="m 53.551541,108.02159 c -1.34886,0.089 -2.73896,0.60596 -4.04659,0.26678 -4.392494,-1.13936 -3.804316,-1.92187 -5.125674,-4.5353 -0.100528,-0.19885 -0.293121,-0.34055 -0.404662,-0.53358 -0.214306,-0.37086 -0.348431,-0.74474 -0.674429,-1.06712 -0.407445,-0.40294 -1.769675,-1.72644 -2.158187,-2.00086 -0.427162,-0.301743 -1.106785,-0.427583 -1.483747,-0.800363 -0.564015,-0.55776 -0.807651,-0.999611 -1.483744,-1.33391 -0.206593,-0.102153 -0.105473,-0.237707 -0.269773,-0.400176 -0.132461,-0.130993 -0.57843,-0.03843 -0.674438,-0.133391 -0.03178,-0.03142 0.04022,-0.113498 0,-0.13339 -0.0045,-0.0024 -0.789918,-0.266784 -0.809317,-0.266784"
         id="path6070" />
      <path
         style="fill:none;stroke:#000000;stroke-width:1.20509;stroke-linecap:round;stroke-linejoin:bevel;stroke-miterlimit:4;stroke-dasharray:none;stroke-opacity:1;paint-order:stroke fill markers"
         d="m 46.267687,107.22123 c -1.378135,-0.27869 -3.792458,-1.58523 -5.125688,-0.26678"
         id="path6072" />
      <path
         style="fill:none;stroke:#000000;stroke-width:1.20509;stroke-linecap:round;stroke-linejoin:bevel;stroke-miterlimit:4;stroke-dasharray:none;stroke-opacity:1;paint-order:stroke fill markers"
         d="m 36.825641,112.2901 c 0.224806,-0.44463 0.499397,-0.86789 0.674431,-1.33391 0.410935,-1.0941 0.618162,-2.26035 1.079093,-3.33478 0.1324,-0.30862 1.072487,-1.35145 1.34886,-1.73408 0.06508,-0.0901 0.20783,-0.47232 0.269774,-0.53357 0.279086,-0.276 -0.01099,0.42175 0.269772,-0.13339 0.04086,-0.0809 0.07837,-0.34428 0.134883,-0.40018 0.14377,-0.14217 0.67443,-0.47298 0.67443,-0.66695"
         id="path6074" />
      <path
         style="fill:none;stroke:#000000;stroke-width:1.20509;stroke-linecap:round;stroke-linejoin:bevel;stroke-miterlimit:4;stroke-dasharray:none;stroke-opacity:1;paint-order:stroke fill markers"
         d="m 40.062912,105.75393 c 0.414662,-1.85975 -0.431592,-2.64098 -0.809317,-4.13513 -0.252598,-0.99919 0.248599,0.0915 -0.134901,-0.66695 -0.158502,-0.3135 -0.452576,-0.32294 -0.539544,-0.66696 -0.10914,-0.431683 -0.117763,-0.882913 -0.269772,-1.333913 -0.05617,-0.16659 -0.07798,-0.912875 0,-1.067132 0.10386,-0.205448 0.269772,-0.221758 0.269772,-0.400172"
         id="path6076" />
      <path
         style="fill:none;stroke:#000000;stroke-width:1.20509;stroke-linecap:round;stroke-linejoin:bevel;stroke-miterlimit:4;stroke-dasharray:none;stroke-opacity:1;paint-order:stroke fill markers"
         d="m 38.848939,100.01811 c 1.137451,-1.167423 1.82543,-2.707803 2.697721,-4.001738 0.04493,-0.04444 0.08993,-0.08893 0.134885,-0.133392 0.04496,0 0.103108,0.03144 0.134899,0 0.0636,-0.06288 -0.08043,-0.227014 0,-0.266782 0.08044,-0.0398 0.184476,0.02814 0.26978,0 0.120638,-0.0398 0.156012,-0.210538 0.269769,-0.26678 0.08144,-0.0403 0.342303,0.06166 0.404661,0 0.17984,-0.177852 -0.224811,-0.133391 0.134884,-0.133391"
         id="path6078" />
      <path
         style="fill:none;stroke:#000000;stroke-width:0.316003px;stroke-linecap:butt;stroke-linejoin:miter;stroke-opacity:1"
         d="m 35.189146,106.51144 c 0.200296,0.0251 0.410365,0.14181 0.600887,0.0751 1.719934,-0.60198 0.431194,-0.36257 1.126668,-0.82621 0.140691,-0.0938 1.201778,-0.52579 1.276886,-0.676 0.100075,-0.20016 6.32e-4,-0.45104 0.225336,-0.60089 0.09765,-0.0651 1.784578,-0.22534 2.027996,-0.22534"
         id="path6080" />
      <path
         style="fill:none;stroke:#000000;stroke-width:1.20509;stroke-linecap:round;stroke-linejoin:bevel;stroke-miterlimit:4;stroke-dasharray:none;stroke-opacity:1;paint-order:stroke fill markers"
         d="m 35.476779,104.01985 c 0.790875,-0.24286 1.84094,0.53356 2.427956,0.53356"
         id="path6082" />
    </g>
    <g
       id="g14884"
       inkscape:export-filename="C:\Users\weyla\OneDrive\Desktop\WDD 130\final project\TripsLogo.png"
       inkscape:export-xdpi="28.901087"
       inkscape:export-ydpi="28.901087">
      <circle
         style="fill:#ffffff;stroke-width:0.264583;paint-order:markers fill stroke"
         id="circle842-5-7"
         cx="107.25963"
         cy="74.708199"
         r="28.12351"
         inkscape:export-filename="C:\Users\weyla\OneDrive\Desktop\WDD 130\final project\logo.png"
         inkscape:export-xdpi="28.456614"
         inkscape:export-ydpi="28.456614" />
      <g
         id="g11389"
         transform="matrix(1.5466775,0,0,1.1002803,-70.690192,-4.7845442)">
        <g
           id="g11384">
          <path
             style="fill:none;stroke:#000000;stroke-width:0.264583px;stroke-linecap:butt;stroke-linejoin:miter;stroke-opacity:1"
             d="m 125.43988,85.521068 c 0,0 -4.13088,-0.212632 -4.18195,-5.301313 -0.0472,-4.699608 2.28166,-7.634997 -1.74454,-11.454083 -5.34068,-5.065948 -12.52659,-4.758743 -12.52659,-4.758743"
             id="path8355"
             sodipodi:nodetypes="cssc" />
        </g>
        <path
           style="fill:none;stroke:#000000;stroke-width:0.264583px;stroke-linecap:butt;stroke-linejoin:miter;stroke-opacity:1"
           d="m 106.29656,85.171633 c 0,0 0.48585,-7.891893 7.3469,-12.644502 4.44596,-3.079691 -6.62428,-8.465483 -6.62428,-8.465483"
           id="path8485"
           sodipodi:nodetypes="csc" />
      </g>
      <path
         style="fill:none;stroke:#000000;stroke-width:0.264583px;stroke-linecap:butt;stroke-linejoin:miter;stroke-opacity:1"
         d="m 109.57202,67.682069 c 1.21709,-0.441137 1.61935,-1.889185 2.84603,-2.13452 0.37834,-0.07567 0.66442,-0.04418 1.06726,-0.08894 0.75743,-0.08416 1.47047,-0.125497 2.22346,0 0.0877,0.01463 0.20392,-0.06289 0.26681,0 0.1899,0.189896 -0.45114,-0.0019 0.17788,0.177876 0.0885,0.02529 0.67641,0.02692 0.80044,0.08894 0.0275,0.01373 -0.0159,0.235001 0,0.266814 0.0876,0.175191 0.42323,0.134948 0.53363,0.355754 0.0585,0.116988 0.45932,0.81507 0.53363,0.889383 0.28698,0.286983 1.63516,0.376158 1.24514,1.1562 -0.0133,0.02652 -0.0757,-0.02652 -0.0889,0 -0.0265,0.05303 0.0188,0.121627 0,0.177877 -0.0265,0.07955 -0.14038,0.102875 -0.17787,0.177877 -0.0185,0.03687 -0.0665,0.166669 -0.0889,0.177877 -0.053,0.02651 -0.12485,-0.02652 -0.17788,0 -0.0224,0.01122 -0.0705,0.140999 -0.0889,0.177876 -0.0807,0.161491 -0.73926,0.266814 -0.97832,0.266814 -0.13019,0 -0.87982,-0.0985 -0.97832,0 -0.021,0.02096 0.0209,0.06797 0,0.08894 -0.0838,0.08385 -0.23878,-0.0195 -0.35576,0 -0.58568,0.09761 -1.97662,0.167889 -2.49027,-0.08894 -0.14118,-0.07059 -0.22808,-0.260001 -0.35575,-0.355753 -0.48822,-0.366168 -0.90066,-0.647624 -1.51195,-0.800444 -0.31687,-0.07922 -1.64751,0.02117 -1.86771,-0.08894 -0.22087,-0.110434 -0.31058,-0.221639 -0.53363,-0.444691 z"
         id="path11459" />
      <path
         style="fill:none;stroke:#000000;stroke-width:0.264583px;stroke-linecap:butt;stroke-linejoin:miter;stroke-opacity:1"
         d="m 95.697642,74.085629 c 0.713073,-0.566521 1.05356,-1.422974 1.423014,-2.223458 0.04967,-0.107624 0.381238,-0.610087 0.44469,-0.800446 0.285261,-0.855774 0.444693,-1.716262 0.444693,-2.668149 0,-0.22249 0.04329,-0.495075 0,-0.711507 -0.145867,-0.729339 -0.700976,-1.380886 -0.889383,-2.13452 -0.120393,-0.481576 0.0075,-1.029891 -0.08894,-1.511951 -0.06186,-0.309314 -0.07781,-0.678117 -0.177874,-0.978323 -0.01326,-0.03977 -0.07877,-0.04826 -0.08894,-0.08894 -0.05622,-0.224896 0.01095,-0.422786 -0.08894,-0.622568 -0.0087,-0.01733 -0.15858,-0.06964 -0.177876,-0.08894 -0.06482,-0.06481 -0.09016,-0.268031 -0.177877,-0.355754 -0.04447,-0.04447 -0.133408,-0.04447 -0.177877,-0.08894 -0.23505,-0.23505 -0.376872,-0.554749 -0.53363,-0.711507 -0.04111,-0.04111 -0.213117,0.02685 -0.266816,0 -0.219803,-0.109902 -0.157967,-0.529162 -0.366544,-0.529162"
         id="path11461"
         sodipodi:nodetypes="csssssssscsssssc" />
      <path
         style="fill:none;stroke:#000000;stroke-width:0.264583px;stroke-linecap:butt;stroke-linejoin:miter;stroke-opacity:1"
         d="m 102.36802,73.551999 c -0.60341,-0.60229 -1.13519,-1.338966 -1.33408,-2.134521 -0.0471,-0.188338 -0.21973,-0.345289 -0.26681,-0.53363 -0.13573,-0.542928 0.23336,0.307343 -0.0889,-0.444691 -0.13949,-0.325479 -0.28763,-0.637696 -0.35575,-0.978323 -0.12853,-0.642617 0.18085,-2.036643 0,-2.579211 -0.0821,-0.246163 -0.18517,-0.555511 -0.26682,-0.800444 -0.07881,-0.236432 -0.0333,-0.700305 -0.08894,-0.978321 -0.08004,-0.400222 0.13957,-1.677508 0,-1.956644 -0.132516,-0.26503 -0.511436,-1.734216 -0.355753,-2.045581 0.08352,-0.167034 0.193294,-0.119774 0.266814,-0.266816 0.02652,-0.05303 -0.02652,-0.124844 0,-0.177877 0.185069,-0.370139 -0.0061,0.09508 0.177879,-0.08894 0.0419,-0.04193 -0.0265,-0.124844 0,-0.177877 0.0445,-0.08905 0.40439,-0.315452 0.44469,-0.355753 0.0648,-0.06481 0.0902,-0.268031 0.17788,-0.355754 0.0209,-0.02096 0.0757,0.02652 0.0889,0 0.0265,-0.05303 -0.0265,-0.124843 0,-0.177876 0.0296,-0.05929 0.1411,-0.03378 0.17787,-0.08894 0.12574,-0.188611 0.0481,-0.339021 0.17788,-0.533628 0.0164,-0.02466 0.0757,0.02651 0.0889,0 0.0609,-0.121848 0.0276,-0.321934 0.0889,-0.444693 0.0954,-0.190799 0.0825,0.01291 0.17787,-0.177876 0.0458,-0.09162 0.11561,-0.382427 0.17788,-0.444691 0.0682,-0.06818 0.25733,-0.168394 0.35575,-0.266816"
         id="path11465" />
      <path
         style="fill:none;stroke:#000000;stroke-width:0.264583px;stroke-linecap:butt;stroke-linejoin:miter;stroke-opacity:1"
         d="m 97.743223,60.12231 c 0.887791,-0.635056 1.808993,-1.236996 2.757087,-1.778765 0.0528,-0.03018 0.79138,-0.346689 0.88938,-0.444693 0.0469,-0.04687 0.0492,-0.124844 0.0889,-0.177877 0.16518,-0.220228 0.42825,-0.339307 0.62257,-0.53363"
         id="path11467" />
      <path
         style="fill:none;stroke:#000000;stroke-width:0.264583px;stroke-linecap:butt;stroke-linejoin:miter;stroke-opacity:1"
         d="m 97.9211,60.033371 c -1.030071,0.488754 -3.121245,-3.468593 -3.646472,-3.468593"
         id="path11469"
         sodipodi:nodetypes="cc" />
      <path
         style="fill:none;stroke:#000000;stroke-width:0.264583px;stroke-linecap:butt;stroke-linejoin:miter;stroke-opacity:1"
         d="m 95.075075,60.65594 c -0.442156,-0.956776 -0.603367,-2.185051 -1.067261,-3.112841 -0.03557,-0.07115 0.03558,-0.195665 0,-0.266814 -0.01326,-0.02652 -0.07568,0.02652 -0.08894,0 -0.06703,-0.134057 -0.246162,-0.767261 0.382727,-0.674669"
         id="path11471"
         sodipodi:nodetypes="csssc" />
      <path
         style="fill:none;stroke:#000000;stroke-width:0.264583px;stroke-linecap:butt;stroke-linejoin:miter;stroke-opacity:1"
         d="m 99.788807,64.213475 c 0.177382,-0.886913 0.04016,-0.517134 0.978323,-1.689831 0.46731,-0.584141 1.14844,-0.795274 1.68983,-1.156197 0.32799,-0.21866 0.595,-0.628811 0.7115,-0.978321 0.0578,-0.173487 0.009,-0.284443 0.0889,-0.444693 0.0265,-0.05303 -0.0419,-0.135951 0,-0.177877 0.0391,-0.03914 0.42956,-0.303717 0.53363,-0.355753 0.43961,-0.219803 -0.0195,0.19735 0.26682,-0.08894"
         id="path11473" />
      <path
         style="fill:none;stroke:#000000;stroke-width:0.264583px;stroke-linecap:butt;stroke-linejoin:miter;stroke-opacity:1"
         d="m 100.05562,64.747105 c 1.09141,-1.304089 2.62156,-2.121813 3.4686,-3.646472 0.15279,-0.275039 0.13986,-0.724432 0.26681,-0.978323 0.0375,-0.075 0.15136,-0.09833 0.17788,-0.177877 0.0748,-0.224525 0.17787,-0.556879 0.17787,-0.800444"
         id="path11475" />
      <path
         style="fill:none;stroke:#000000;stroke-width:0.264583px;stroke-linecap:butt;stroke-linejoin:miter;stroke-opacity:1"
         d="m 94.651501,59.677619 c -0.23717,-0.02965 -0.582549,-0.08894 -0.821563,-0.08894 -0.05437,0 -0.517658,0.303297 -0.622567,0.355753 -0.09331,0.04666 -0.373706,-0.07098 -0.444694,0 -0.02096,0.02096 0.02096,0.06798 0,0.08894 -0.01923,0.01924 -0.327678,0.01405 -0.355753,0 -0.261729,-0.130866 0.138057,-0.08894 -0.266814,-0.08894 -0.122243,0 -1.007443,-0.05982 -0.711507,-0.355753 0.04447,-0.04447 0.222345,0.04447 0.266814,0 0.02096,-0.02095 -0.02096,-0.06797 0,-0.08894 0.108768,-0.108768 1.219652,0.101682 1.423014,0 0.509635,-0.254818 0.759171,-0.533631 1.334074,-0.533631"
         id="path11477"
         sodipodi:nodetypes="csssscssscsc" />
      <path
         style="fill:none;stroke:#000000;stroke-width:0.264583px;stroke-linecap:butt;stroke-linejoin:miter;stroke-opacity:1"
         d="m 95.964458,73.996689 c -0.749466,0.923999 -0.642281,1.450176 0.533631,1.1562 0.174262,-0.04357 0.385577,-0.02983 0.533627,-0.177876 0.09571,-0.09571 0.180396,-0.447212 0.266817,-0.533631 0.02096,-0.02096 0.06797,0.02096 0.08894,0 0.03727,-0.03727 0.06199,-0.212912 0.08894,-0.266816 0.0375,-0.075 0.140378,-0.102875 0.177877,-0.177877 0.02685,-0.0537 -0.04111,-0.2257 0,-0.266813 0.184015,-0.184018 -0.0072,0.281201 0.177877,-0.08894 0.155736,-0.311473 -0.135933,-0.231569 0.266814,-0.53363 0.550052,-0.412539 0.0537,-0.01847 0.177876,-0.266814 0.03286,-0.06572 0.584565,-0.393758 0.62257,-0.355754 0.360812,0.360813 -0.252232,0.934572 -0.355753,1.245138 -0.21436,0.643077 0.413059,0.501996 0.53363,0.622567 0.02096,0.02096 -0.02096,0.06798 0,0.08894 0.04193,0.04193 0.135951,-0.04193 0.177877,0 0.02965,0.02965 0.08894,0.130863 0.08894,0.08894 0,-0.0095 -0.266944,0.231344 -0.533631,0.444694 -0.162692,0.130153 -0.281998,0.314536 -0.44469,0.44469 -0.870879,0.696704 0.426185,-0.25201 -0.444693,0.444693 -0.07321,0.05856 -0.191815,0.03269 -0.266814,0.08894 -0.131564,0.09867 -0.236979,0.325917 -0.355753,0.444691 -0.05662,0.05662 -0.581655,0.287274 -0.266817,0.444693 0.834168,0.417084 1.634202,0.02781 2.401337,-0.355754 0.190349,-0.09517 -0.01249,-0.0827 0.177877,-0.177876 0.05303,-0.02652 0.124844,0.02652 0.177877,0 0.181888,-0.09095 -0.0027,-0.122381 0.177876,-0.266814 0.26792,-0.214336 0.68331,-0.271153 0.80045,-0.62257 0.16179,-0.485383 -1.006285,-1.483995 -0.80045,-1.689827 0.39678,-0.39678 1.1799,-0.121558 1.60089,0.08894 0.053,0.02652 0.13595,-0.04193 0.17788,0 0.0209,0.02096 -0.0247,0.07249 0,0.08894 0.19789,0.131927 0.65281,0.355754 0.88938,0.355754 0.0625,0 0.40059,0.0441 0.44469,0 0.12251,-0.12251 -0.0504,-0.647772 -0.17787,-0.711507 -0.17247,-0.08623 -0.38697,-0.120155 -0.53363,-0.266817"
         id="path11481" />
      <path
         style="fill:none;stroke:#000000;stroke-width:0.264583px;stroke-linecap:butt;stroke-linejoin:miter;stroke-opacity:1"
         d="m 95.964458,62.167894 c -0.3854,-0.02965 -0.769829,-0.100304 -1.1562,-0.08894 -0.803986,0.02365 -1.957395,0.304824 -2.846025,0.177877 -0.272251,-0.03889 -0.560789,-0.186931 -0.800446,-0.266814 -0.158327,-0.05278 -0.375301,-0.03616 -0.53363,-0.08894 -0.03977,-0.01326 -0.04826,-0.07877 -0.08894,-0.08894 -0.266573,-0.06664 -0.481137,-0.06269 -0.711507,-0.177877 -0.09763,-0.04882 -0.9612,-0.160755 -0.978321,-0.177876 -0.05458,-0.05458 0.0154,-0.367676 0,-0.444693 -0.04709,-0.235451 -0.248814,-1.032325 -0.177877,-1.245138 0.07639,-0.229153 0.375039,-1.028686 0.266814,-1.245134 -0.07645,-0.152911 -0.218011,-0.160541 -0.266814,-0.355753 -0.05924,-0.236951 -0.272555,-1.233657 -0.177876,-1.423014 0.103351,-0.206709 0.922337,-0.683514 1.156197,-0.800447 0.135887,-0.06794 0.412178,-0.501115 0.53363,-0.622567"
         id="path11483" />
      <path
         style="fill:none;stroke:#000000;stroke-width:0.264583px;stroke-linecap:butt;stroke-linejoin:miter;stroke-opacity:1"
         d="m 89.116206,55.586455 c 0.521099,-1.14921 1.185058,-2.289162 2.490274,-2.579212 0.450347,-0.100076 0.837316,-0.172809 1.245137,-0.44469 0.215667,-0.14378 0.623935,-0.534998 0.800444,-0.711507 0.144923,-0.144923 0.176263,-0.41397 0.355753,-0.53363 0.08894,-0.05929 0.163116,-0.151953 0.266814,-0.177877 0.17911,-0.04478 2.269334,-0.487754 2.401337,-0.355753 0.04603,0.04604 0.131842,0.220781 0.177877,0.266816 0.11039,0.11039 0.200893,0.111953 0.266814,0.177877 0.09907,0.09907 0.154035,0.331912 0.266814,0.44469"
         id="path11485" />
      <path
         style="fill:none;stroke:#000000;stroke-width:0.264583px;stroke-linecap:butt;stroke-linejoin:miter;stroke-opacity:1"
         d="m 96.587026,56.653715 c 0.559739,-1.819148 0.345408,-0.584367 0.177876,-2.846025 -0.04599,-0.620832 0.177954,-1.422897 -0.177876,-1.956644 -0.18677,-0.280157 -0.466146,-0.322011 -0.711507,-0.44469 -0.075,-0.0375 -0.102878,-0.140378 -0.177877,-0.177877 -0.05303,-0.02652 -0.135951,0.04193 -0.177877,0 -0.02096,-0.02096 0.02652,-0.07568 0,-0.08894 -0.07955,-0.03977 -0.187266,0.03977 -0.266813,0 -0.136981,-0.06849 -0.147858,-0.177877 -0.266817,-0.177877"
         id="path11487" />
      <path
         style="fill:none;stroke:#000000;stroke-width:0.264583px;stroke-linecap:butt;stroke-linejoin:miter;stroke-opacity:1"
         d="m 96.675965,52.384676 c 0.118584,-0.08894 0.258866,-0.15463 0.355751,-0.266816 0.469075,-0.543137 0.995183,-1.057228 1.334077,-1.689828 0.10459,-0.195236 -0.187426,-1.149831 0.08894,-1.334074 0.163907,-0.10927 0.349935,-0.104399 0.53363,-0.177877 1.199517,-0.479806 2.763727,-0.679645 4.002227,-0.266816 0.41232,0.13744 0.0759,1.117132 0.17787,1.423014 0.14206,0.426169 0.52532,0.783823 0.71151,1.1562 0.0875,0.174979 0.48559,0.34862 0.62257,0.622567 0.10295,0.205909 -0.0288,0.708845 -0.0889,0.889384 -0.081,0.242956 -0.35575,0.232746 -0.35575,0.53363"
         id="path11489" />
      <path
         style="fill:none;stroke:#000000;stroke-width:0.264583px;stroke-linecap:butt;stroke-linejoin:miter;stroke-opacity:1"
         d="m 104.23572,51.317416 c 1.05202,-0.396383 1.9619,0.596643 2.04558,1.60089 0.0347,0.416447 -0.32507,0.803551 -0.17787,1.245138 0.0823,0.24688 0.3305,0.322815 0.53363,0.44469 0.0624,0.03745 0.57385,0.703006 0.62257,0.800447 0.0356,0.07115 -0.0356,0.195662 0,0.266813 0.41219,0.824379 -0.19213,1.124273 -0.35576,1.778768 -0.0542,0.216656 0.005,0.454681 0.0889,0.622567 0.14439,0.288777 -0.16426,1.409398 -0.35575,1.60089 -0.0164,0.01638 -0.25043,0.07255 -0.26682,0.08894 -0.0209,0.02096 0.021,0.06798 0,0.08894 -0.26458,0.264578 -0.81677,-0.07261 -1.06726,0.177877 -0.0419,0.04193 0.0419,0.135951 0,0.177877 -0.0209,0.02096 -0.068,-0.02096 -0.0889,0 -0.16523,0.165237 0.24515,0.800444 -0.35575,0.800444"
         id="path11491" />
      <path
         style="fill:none;stroke:#000000;stroke-width:0.264583px;stroke-linecap:butt;stroke-linejoin:miter;stroke-opacity:1"
         d="m 106.57956,59.666829 c 0.11858,0.3854 0.32431,0.941634 0.32431,1.344865 0,0.346998 -0.17982,0.679233 -0.35575,0.978323 -0.34969,0.594479 -1.4461,1.326377 -2.22346,1.067258 -0.20617,-0.06872 -0.58326,-0.197528 -0.80044,-0.08894 -0.0475,0.02376 -0.49353,0.31565 -0.53363,0.355753 -0.021,0.02096 0.0209,0.06797 0,0.08894 -0.0583,0.05831 -0.3112,0.04438 -0.35576,0.08894 -0.0209,0.02096 0.021,0.06797 0,0.08894 -0.15627,0.156273 -1.07187,-0.177877 -1.1562,-0.177877"
         id="path11493"
         sodipodi:nodetypes="cssssccccc" />
      <path
         style="fill:none;stroke:#000000;stroke-width:0.264583px;stroke-linecap:butt;stroke-linejoin:miter;stroke-opacity:1"
         d="m 104.23572,53.362997 c 0.0297,0.326107 0.0514,0.653029 0.0889,0.978323 0.0665,0.576548 0.37664,1.302745 0,1.867705 -0.0822,0.123335 -0.25094,0.161999 -0.35575,0.266813 -0.17739,0.177393 -0.41492,0.474089 -0.53363,0.711507 -0.0596,0.119121 -0.21218,0.123235 -0.26682,0.177877 -0.23899,0.238998 -0.0545,0.642641 -0.17787,0.889384 -0.0265,0.05306 -0.26682,0.199022 -0.26682,0.355753"
         id="path11495" />
      <path
         style="fill:#ffffff;fill-opacity:1;stroke:#000004;stroke-width:0.169789;stroke-linecap:round;stroke-linejoin:bevel;stroke-miterlimit:4;stroke-dasharray:none;stroke-dashoffset:0;paint-order:stroke fill markers"
         d="m 376.3232,248.5572 c -1.52312,-0.19861 -5.62033,-0.58202 -7.80701,-0.73055 -0.45367,-0.0308 -0.84527,-0.0779 -0.87023,-0.10468 -0.14059,-0.1508 -0.19199,-0.79583 -0.23353,-2.93065 -0.0402,-2.065 -0.0596,-2.37746 -0.19947,-3.20882 -0.0852,-0.50658 -0.22114,-1.33553 -0.30204,-1.8421 -0.17702,-1.10847 -0.34635,-1.68278 -0.55843,-1.89403 -0.14821,-0.14764 -0.15882,-0.19808 -0.19686,-0.93572 -0.0642,-1.24432 -0.23249,-1.64732 -0.7916,-1.89541 -0.2915,-0.12935 -0.30692,-0.14865 -0.46877,-0.58684 -0.2303,-0.62353 -0.47238,-0.92554 -0.86921,-1.08443 -0.37457,-0.14998 -0.66781,-0.48827 -1.49687,-1.7268 -0.8093,-1.20901 -0.97076,-1.32771 -1.68471,-1.23851 -0.32037,0.04 -0.32599,0.038 -0.44472,-0.15666 -0.0661,-0.10845 -0.18775,-0.39951 -0.27025,-0.6468 -0.0825,-0.24727 -0.24147,-0.59158 -0.35327,-0.76511 -0.39346,-0.61071 -0.92727,-2.19303 -1.99165,-5.90364 -0.63436,-2.21152 -1.13376,-3.7016 -1.58733,-4.73622 -0.17914,-0.40866 -0.33989,-0.80318 -0.35721,-0.87671 l -0.0315,-0.1337 h 1.54329 1.54328 l 1.59772,2.12435 c 2.50666,3.33292 3.60742,4.66985 4.9382,5.99769 1.47586,1.47259 2.81983,2.27691 3.80461,2.27691 0.19196,0 0.37515,0.0261 0.40708,0.058 0.0747,0.0748 0.56397,-0.16853 0.75034,-0.37312 0.2483,-0.27257 3.87548,-2.71006 6.04897,-4.06495 2.26974,-1.41489 3.61048,-2.17758 4.7241,-2.68734 0.58828,-0.26929 1.29389,-0.60976 1.56801,-0.75659 0.3495,-0.18721 0.48701,-0.23728 0.46027,-0.16759 -0.021,0.0547 -0.0543,0.16388 -0.0741,0.24272 -0.0215,0.0858 -0.11893,0.1827 -0.24247,0.24133 -0.37208,0.17656 -0.62459,0.71981 -0.70042,1.50689 -0.0343,0.35654 -0.0535,0.39842 -0.24102,0.52691 -0.2666,0.18267 -0.47176,0.6251 -0.58289,1.25699 -0.12749,0.72496 -0.17109,0.81265 -0.44014,0.88509 -0.29988,0.0807 -0.54431,0.34229 -0.59147,0.63284 -0.0228,0.14052 -0.0928,0.27491 -0.178,0.34196 -0.1512,0.11894 -0.36248,0.50191 -0.55372,1.00369 -0.10734,0.28163 -0.17428,0.35218 -0.66363,0.69947 -0.73046,0.51839 -1.21962,0.97574 -1.2651,1.18279 -0.0216,0.0984 -0.0978,0.19529 -0.18462,0.23487 -0.0963,0.0439 -0.22052,0.21756 -0.35645,0.49844 -0.17298,0.35743 -0.20257,0.4734 -0.17318,0.67868 0.0317,0.22108 0.0184,0.25925 -0.12332,0.35653 -0.43607,0.29927 -0.73833,0.6366 -0.86206,0.96209 -0.41173,1.08313 0.25087,5.05463 1.33486,8.00083 0.19209,0.5221 0.19357,0.73111 0.008,1.09777 -0.17441,0.34419 -0.33272,0.91361 -0.50428,1.81393 -0.0685,0.35951 -0.13688,0.71132 -0.15195,0.78181 -0.0243,0.11349 0.005,0.13265 0.25745,0.16734 0.15666,0.0215 0.31748,0.0593 0.35737,0.084 0.0569,0.0352 0.0578,0.29652 0.004,1.21021 -0.0528,0.90083 -0.0518,1.31131 0.004,1.8082 0.0878,0.78049 0.17425,1.9945 0.17805,2.49978 l 0.003,0.37139 -0.25255,-0.008 c -0.1389,-0.004 -0.53332,-0.0442 -0.87648,-0.089 z"
         id="path12047"
         transform="scale(0.26458333)" />
      <path
         style="fill:#ffffff;fill-opacity:1;stroke:#000004;stroke-width:0.679158;stroke-linecap:round;stroke-linejoin:bevel;stroke-miterlimit:4;stroke-dasharray:none;stroke-dashoffset:0;paint-order:stroke fill markers"
         d="m 375.76859,248.40746 c -0.0545,-0.0538 -1.77884,-0.23165 -3.83193,-0.3953 -2.05309,-0.16364 -3.86287,-0.37786 -4.02172,-0.47603 -0.18936,-0.11704 -0.34867,-1.31106 -0.46258,-3.46717 -0.16559,-3.134 -0.54323,-5.62616 -0.93056,-6.14095 -0.0984,-0.13073 -0.23361,-0.74963 -0.30055,-1.37533 -0.0753,-0.70394 -0.31318,-1.33825 -0.62395,-1.66384 -2.07336,-2.1722 -2.5987,-2.77286 -3.12097,-3.56845 -0.38135,-0.58091 -0.83712,-0.95408 -1.27768,-1.04613 -0.87007,-0.18179 -1.62044,-1.76433 -2.97084,-6.26555 -0.86968,-2.89884 -1.59814,-5.11098 -2.04989,-6.22496 -0.14961,-0.36892 -0.006,-0.41595 1.27043,-0.41595 h 1.43912 l 2.21109,2.90657 c 3.935,5.17271 6.17892,7.22395 8.03603,7.34599 0.68112,0.0447 1.2363,-0.2259 3.08845,-1.50567 3.79146,-2.61977 9.71114,-6.1323 10.33476,-6.1323 0.0702,0 0.032,0.18718 -0.085,0.41596 -0.11694,0.22877 -0.45083,1.00424 -0.742,1.72325 -0.29116,0.71902 -0.59749,1.42209 -0.68074,1.56238 -0.77451,1.30529 -1.84752,2.69069 -2.84263,3.67023 -0.6579,0.6476 -1.27244,1.41775 -1.36566,1.71145 -0.0932,0.29369 -0.38462,0.82498 -0.64757,1.18064 -0.42142,0.57 -0.46107,0.88043 -0.33456,2.61919 0.0789,1.0849 0.43134,2.97123 0.78312,4.19185 0.63498,2.20327 0.63678,2.231 0.24914,3.83706 -0.4729,1.9593 -0.47157,1.90626 -0.0479,1.90626 0.27518,0 0.357,0.56111 0.41596,2.85273 l 0.0734,2.85274 -0.73288,-4.8e-4 c -0.40308,-2.4e-4 -0.77744,-0.0444 -0.83191,-0.0982 z"
         id="path12123"
         transform="scale(0.26458333)" />
      <path
         style="fill:#ffffff;fill-opacity:1;stroke:#000004;stroke-width:0.679158;stroke-linecap:round;stroke-linejoin:bevel;stroke-miterlimit:4;stroke-dasharray:none;stroke-dashoffset:0;paint-order:stroke fill markers"
         d="m 376.858,254.96445 c -0.78438,-0.36911 -2.78072,-1.23841 -4.43631,-1.93178 l -3.01017,-1.26067 -0.60153,-1.32954 c -0.33084,-0.73125 -0.58068,-1.3481 -0.55519,-1.37077 0.0537,-0.0477 6.35446,0.53772 8.15263,0.75751 l 1.21326,0.14829 0.49992,1.7002 c 0.61156,2.07991 0.78817,3.12703 0.60702,3.59911 -0.18149,0.47297 -0.21143,0.46797 -1.86963,-0.31235 z"
         id="path12162"
         transform="scale(0.26458333)" />
      <path
         style="fill:#ffffff;fill-opacity:1;stroke:#000000;stroke-width:0.1;stroke-linecap:butt;stroke-linejoin:miter;stroke-miterlimit:4;stroke-dasharray:none;stroke-opacity:0"
         d="m 97.336289,65.231507 c 0.01572,0 -0.0094,0.239158 -0.0094,0.239158 l 0.110425,0.438152 0.246061,0.616532 0.242703,0.496421 c 0,0 0.259185,0.552349 0.322074,0.70957 0.06289,0.157224 1.84348,0.692569 1.93781,0.409568 0.0616,-0.184911 0.0559,-0.503032 0.01,-0.628127 -0.0244,-0.06636 -0.0961,-0.0025 -0.0961,-0.0025 l -0.335755,-2.294653 z"
         id="path13035"
         sodipodi:nodetypes="cccccscsccc" />
    </g>
  </g>
</svg>
